<svg width="60" height="60" viewBox="0 0 60 60" fill="none" xmlns="http://www.w3.org/2000/svg">
<path d="M45.7998 11.5C46.3739 11.5 46.8619 11.7278 47.2236 12.1689C47.5975 12.5524 47.7998 13.0186 47.7998 13.5498C47.7998 14.1043 47.5626 14.5797 47.1455 14.96C44.7148 17.2907 42.2679 19.6891 39.8037 22.1533C37.495 24.4937 35.307 26.7588 33.2393 28.9482C35.665 31.4852 38.0301 34.1283 40.333 36.8789C42.7385 39.7522 44.9117 42.5943 46.8525 45.4043C47.1125 45.7197 47.25 46.09 47.25 46.5C47.25 47.1711 46.9483 47.7287 46.4053 48.1465L46.3916 48.1562L46.377 48.166C46.002 48.4159 45.5903 48.5497 45.1504 48.5498C44.4985 48.5498 43.9719 48.2343 43.5928 47.6895V47.6904C41.6008 44.9017 39.4587 42.1454 37.167 39.4219L37.165 39.4199C34.9907 36.8044 32.7712 34.2944 30.5078 31.8887C29.0262 33.5288 27.5143 35.2244 25.9756 36.9785C24.3445 38.8426 22.747 40.7073 21.1826 42.5713L21.1797 42.5752C19.6174 44.4035 18.1893 46.1477 16.8945 47.8076L16.8936 47.8066C16.5075 48.3175 15.9833 48.5996 15.3496 48.5996C14.8925 48.5995 14.4728 48.4378 14.0996 48.1494C13.5845 47.7629 13.2998 47.2361 13.2998 46.5996C13.2999 46.1166 13.4574 45.6814 13.7734 45.3203C15.1068 43.6209 16.588 41.8061 18.2178 39.877C19.8532 37.9412 21.5226 36.006 23.2246 34.0703C24.8088 32.2687 26.3213 30.582 27.7617 29.0107C26.8179 28.0433 25.9153 27.1424 25.0527 26.3096L25.0469 26.3037C24.1177 25.3746 23.1208 24.4117 22.0576 23.415L22.0518 23.4092C20.9882 22.3789 19.741 21.1978 18.3096 19.8662L18.3047 19.8623C16.9062 18.5304 15.1908 16.9149 13.1582 15.0156L13.1465 15.0039C12.7374 14.5948 12.5 14.1059 12.5 13.5498C12.5001 13.0788 12.6893 12.6279 12.9961 12.2061L13.0186 12.1738L13.0469 12.1465C13.4559 11.7375 13.944 11.5 14.5 11.5C15.0347 11.5 15.5038 11.7046 15.8887 12.083L17.4717 13.5498C19.0107 14.9825 20.4192 16.312 21.6963 17.5391C23.3941 19.1703 24.9758 20.7025 26.4414 22.1348L27.5615 23.1953C28.5452 24.1401 29.5048 25.1017 30.4443 26.0762C31.2657 25.2041 32.199 24.2434 33.2461 23.1963C34.4448 21.9643 35.6938 20.6823 36.9922 19.3506L36.9961 19.3467C38.3293 18.0135 39.6296 16.7297 40.8965 15.4961L41.8301 14.5693C42.7452 13.6667 43.6046 12.8383 44.4082 12.085L44.4199 12.0732L44.4336 12.0635C44.8526 11.7206 45.3111 11.5001 45.7998 11.5Z" fill="#404040" stroke="#404040"/>
</svg>
