<svg width="169" height="196" viewBox="0 0 169 196" fill="none" xmlns="http://www.w3.org/2000/svg">
<path d="M112.2 -1.21593e-05C116 -1.21593e-05 120.3 0.199991 125.1 0.599998C130.1 0.999993 135.1 1.69999 140.1 2.69999C145.3 3.49999 150.3 4.69999 155.1 6.3C160.1 7.69999 164.5 9.59999 168.3 12L158.7 54H112.2C112.4 51.8 112.6 49.7 112.8 47.7C113 45.7 113.1 43.6 113.1 41.4C113.1 36.2 112.5 31.5 111.3 27.3C110.1 22.9 107.8 20.7 104.4 20.7C102 20.7 99.2002 22 96.0002 24.6C92.8002 27.2 89.5002 31.3 86.1002 36.9C82.7002 42.5 79.5002 49.7 76.5002 58.5C73.5002 67.3 71.0002 77.8 69.0002 90H72.0002C77.8002 83.6 84.9002 78.7 93.3002 75.3C101.9 71.9 110.7 70.2 119.7 70.2C135.1 70.2 146.1 74.9 152.7 84.3C159.3 93.5 162.6 106.1 162.6 122.1C162.6 134.3 160.7 144.9 156.9 153.9C153.1 162.7 147 170.4 138.6 177C131.4 182.6 122.3 187.2 111.3 190.8C100.5 194.2 87.7002 195.9 72.9002 195.9C62.3002 195.9 52.5002 194.8 43.5002 192.6C34.7002 190.2 27.0002 186.2 20.4002 180.6C14.0002 174.8 9.0002 167.1 5.4002 157.5C1.8002 147.7 0.000195652 135.4 0.000195652 120.6C0.000195652 104.8 2.2002 89.6 6.6002 75C11.2002 60.4 18.1002 47.6 27.3002 36.6C36.5002 25.4 48.1002 16.5 62.1002 9.89999C76.3002 3.29999 93.0002 -1.21593e-05 112.2 -1.21593e-05ZM71.4002 175.5C76.2002 175.5 80.4002 173.3 84.0002 168.9C87.6002 164.5 90.5002 159.1 92.7002 152.7C94.9002 146.3 96.5002 139.5 97.5002 132.3C98.7002 124.9 99.3002 118.3 99.3002 112.5C99.3002 107.7 98.7002 104 97.5002 101.4C96.5002 98.8 94.0002 97.5 90.0002 97.5C84.6002 97.5 80.0002 99.8 76.2002 104.4C72.4002 108.8 69.2002 114.2 66.6002 120.6C64.2002 126.8 62.4002 133.3 61.2002 140.1C60.2002 146.9 59.7002 152.6 59.7002 157.2C59.7002 162.8 60.6002 167.3 62.4002 170.7C64.2002 173.9 67.2002 175.5 71.4002 175.5Z" fill="#79FF9D" fill-opacity="0.05"/>
</svg>
