<svg width="491" height="38" viewBox="0 0 491 38" fill="none" xmlns="http://www.w3.org/2000/svg">
<path d="M6.296 15.1925C4.18659 15.1223 2.38184 14.682 2.14099 14.1738C1.90138 13.6156 3.55876 13.1806 5.88083 13.1879L478.666 15.9103C480.988 15.9175 483.045 16.3862 483.327 16.9458C483.567 17.504 481.91 17.939 479.587 17.9317L6.80251 15.1993C6.80251 15.1993 6.465 15.1881 6.29625 15.1825L6.296 15.1925Z" fill="#FF7E44"/>
<path d="M3.79335 21.7819C1.95622 21.7207 0.385623 21.2883 0.177698 20.7711C-0.0292443 20.214 1.41576 19.7719 3.43832 19.7692L486.348 20.8378C488.333 20.8439 490.161 21.2949 490.405 21.8532C490.612 22.4103 489.167 22.8524 487.144 22.8551L4.19777 21.7853C4.19777 21.7853 3.90383 21.7755 3.7936 21.7719L3.79335 21.7819Z" fill="#FF7E44"/>
</svg>
