<svg width="150" height="150" viewBox="0 0 150 150" fill="none" xmlns="http://www.w3.org/2000/svg">
<path d="M145 74.9535C145 81.5849 144.167 87.9374 142.502 94.011C139.232 106.158 133.218 116.756 124.458 125.804C120.078 130.329 115.359 134.078 110.301 137.053C105.057 140.214 99.4437 142.662 93.46 144.397C87.538 146.132 81.3692 147 74.9537 147C68.3532 147 62.1536 146.132 56.3549 144.397C44.3875 140.926 34.0857 134.729 25.4494 125.804C21.3781 121.59 17.7385 116.725 14.5307 111.209C11.508 105.879 9.16391 100.178 7.49835 94.1039C5.83278 87.9684 5 81.5849 5 74.9535C5 68.3221 5.83278 61.9387 7.49835 55.8031C10.8295 43.47 16.8132 32.8722 25.4494 24.0097C29.6442 19.7334 34.3633 15.9839 39.6067 12.7611C44.7885 9.66236 50.3712 7.27631 56.3549 5.60297C62.3386 3.86766 68.5382 3 74.9537 3C81.3692 3 87.5688 3.83667 93.5525 5.51001C105.52 8.98063 115.822 15.1472 124.458 24.0097C128.714 28.348 132.385 33.213 135.469 38.6049C138.554 43.9348 140.898 49.6675 142.502 55.8031C144.167 61.9387 145 68.3221 145 74.9535ZM126.679 74.9535C126.679 70.1194 126.062 65.3783 124.828 60.7302C122.299 51.5578 117.857 43.6869 111.504 37.1175C108.419 33.8948 104.934 31.1059 101.048 28.7508C93.0899 23.9167 84.3919 21.4997 74.9537 21.4997C67.798 21.4997 61.1049 22.9251 54.8744 25.776C48.644 28.5649 43.1846 32.3764 38.4964 37.2105C33.8081 42.0445 30.1069 47.7153 27.3926 54.2227C24.74 60.6682 23.4137 67.5784 23.4137 74.9535C23.4137 82.3286 24.74 89.2699 27.3926 95.7773C30.1069 102.285 33.8081 107.955 38.4964 112.79C43.1846 117.624 48.644 121.466 54.8744 124.317C61.1049 127.106 67.798 128.5 74.9537 128.5C79.7037 128.5 84.2994 127.85 88.7409 126.548C97.4389 124.069 105.026 119.483 111.504 112.79C114.65 109.505 117.364 105.91 119.646 102.006C121.867 98.0394 123.594 93.7941 124.828 89.2699C126.062 84.6837 126.679 79.9116 126.679 74.9535Z" fill="#FF522C"/>
</svg>
