<svg width="22" height="20" viewBox="0 0 22 20" fill="none" xmlns="http://www.w3.org/2000/svg">
<g clip-path="url(#clip0_2434_1785)">
<path d="M16.1968 20.0001C16.0119 20.0001 15.8153 19.9416 15.6651 19.8131L9.85002 15.1842L3.89627 18.6441C3.57257 18.8312 3.15638 18.7844 2.87893 18.5273C2.60147 18.2701 2.52054 17.861 2.68239 17.5103L5.39916 11.6307L0.335573 7.60966C0.0465557 7.37588 -0.0690512 6.97845 0.0581165 6.61609C0.185284 6.26542 0.485862 6.00826 0.902047 6.04333L7.87314 6.27711L10.5321 0.502709C10.6824 0.163726 11.0292 -0.034988 11.3876 7.91769e-05C11.746 0.0351464 12.0581 0.292306 12.1506 0.642978L13.7113 6.47582L21.1564 6.72129C21.5379 6.73298 21.8731 7.00183 21.9656 7.38757C22.0581 7.77331 21.8963 8.15905 21.561 8.35776L15.2026 12.0515L17.0292 18.8896C17.1217 19.252 16.983 19.6377 16.6708 19.8481C16.5321 19.9416 16.3587 19.9884 16.1968 19.9884V20.0001ZM11.4685 14.2374L14.6824 16.7973L13.6535 12.9633L11.457 14.2374H11.4685ZM6.78644 12.7529L5.41072 15.7453L8.38181 14.0153L6.798 12.7529H6.78644ZM7.54945 11.1164L10.0003 13.0685L13.1911 11.2099L12.3818 8.18243L8.95985 8.06554L7.54945 11.1164ZM14.1968 8.25256L14.7518 10.3098L18.0697 8.38114L14.1968 8.25256ZM3.48008 7.8902L6.13904 10.0059L7.0639 8.00709L3.48008 7.8902ZM9.75754 6.34724L11.9078 6.41738L11.1101 3.42498L9.75754 6.34724Z" fill="#FF7E44"/>
</g>
<defs>
<clipPath id="clip0_2434_1785">
<rect width="22" height="20" fill="white"/>
</clipPath>
</defs>
</svg>
