<svg width="40" height="40" viewBox="0 0 40 40" fill="none" xmlns="http://www.w3.org/2000/svg">
<path fill-rule="evenodd" clip-rule="evenodd" d="M24.6675 22.6675H23.6142L23.2408 22.3075C24.8408 20.4408 25.6675 17.8942 25.2142 15.1875C24.5875 11.4808 21.4942 8.52083 17.7608 8.0675C12.1208 7.37417 7.37417 12.1208 8.0675 17.7608C8.52083 21.4942 11.4808 24.5875 15.1875 25.2142C17.8942 25.6675 20.4408 24.8408 22.3075 23.2408L22.6675 23.6142V24.6675L28.3342 30.3342C28.8808 30.8808 29.7742 30.8808 30.3208 30.3342C30.8675 29.7875 30.8675 28.8942 30.3208 28.3475L24.6675 22.6675ZM16.6675 22.6675C13.3475 22.6675 10.6675 19.9875 10.6675 16.6675C10.6675 13.3475 13.3475 10.6675 16.6675 10.6675C19.9875 10.6675 22.6675 13.3475 22.6675 16.6675C22.6675 19.9875 19.9875 22.6675 16.6675 22.6675Z" fill="#0D82FF"/>
<path d="M24.6675 22.6675L25.0219 22.3148L24.8753 22.1675H24.6675V22.6675ZM23.6142 22.6675L23.2671 23.0274L23.4124 23.1675H23.6142V22.6675ZM23.2408 22.3075L22.8612 21.9821L22.5543 22.3401L22.8938 22.6674L23.2408 22.3075ZM25.2142 15.1875L25.7073 15.1049L25.7072 15.1042L25.2142 15.1875ZM17.7608 8.0675L17.6998 8.56377L17.7006 8.56385L17.7608 8.0675ZM8.0675 17.7608L8.56386 17.7006L8.56377 17.6998L8.0675 17.7608ZM15.1875 25.2142L15.1042 25.7072L15.1049 25.7073L15.1875 25.2142ZM22.3075 23.2408L22.6674 22.8938L22.3401 22.5543L21.9821 22.8612L22.3075 23.2408ZM22.6675 23.6142H23.1675V23.4124L23.0274 23.2671L22.6675 23.6142ZM22.6675 24.6675H22.1675V24.8746L22.3139 25.0211L22.6675 24.6675ZM30.3208 28.3475L29.9664 28.7002L29.9673 28.7011L30.3208 28.3475ZM24.6675 22.6675V22.1675H23.6142L23.6142 22.6675V23.1675H24.6675V22.6675ZM23.6142 22.6675L23.9612 22.3076L23.5879 21.9476L23.2408 22.3075L22.8938 22.6674L23.2671 23.0274L23.6142 22.6675ZM23.2408 22.3075L23.6205 22.6329C25.3117 20.6597 26.1864 17.9653 25.7073 15.1049L25.2142 15.1875L24.721 15.2701C25.1486 17.8231 24.3699 20.2219 22.8612 21.9821L23.2408 22.3075ZM25.2142 15.1875L25.7072 15.1042C25.0437 11.1798 21.7748 8.05124 17.8211 7.57115L17.7608 8.0675L17.7006 8.56385C21.2135 8.99043 24.1313 11.7819 24.7212 15.2709L25.2142 15.1875ZM17.7608 8.0675L17.8218 7.57124C11.8591 6.83822 6.83822 11.8591 7.57124 17.8218L8.0675 17.7608L8.56377 17.6998C7.91011 12.3826 12.3826 7.91011 17.6998 8.56377L17.7608 8.0675ZM8.0675 17.7608L7.57115 17.8211C8.05124 21.7748 11.1798 25.0437 15.1042 25.7072L15.1875 25.2142L15.2709 24.7212C11.7819 24.1313 8.99043 21.2135 8.56385 17.7006L8.0675 17.7608ZM15.1875 25.2142L15.1049 25.7073C17.9653 26.1864 20.6597 25.3117 22.6329 23.6205L22.3075 23.2408L21.9821 22.8612C20.2219 24.3699 17.8231 25.1486 15.2701 24.721L15.1875 25.2142ZM22.3075 23.2408L21.9476 23.5879L22.3076 23.9612L22.6675 23.6142L23.0274 23.2671L22.6674 22.8938L22.3075 23.2408ZM22.6675 23.6142H22.1675V24.6675H22.6675H23.1675V23.6142H22.6675ZM22.6675 24.6675L22.3139 25.0211L27.9806 30.6877L28.3342 30.3342L28.6877 29.9806L23.0211 24.3139L22.6675 24.6675ZM28.3342 30.3342L27.9806 30.6877C28.7225 31.4297 29.9325 31.4297 30.6744 30.6877L30.3208 30.3342L29.9673 29.9806C29.6159 30.332 29.0391 30.332 28.6877 29.9806L28.3342 30.3342ZM30.3208 30.3342L30.6744 30.6877C31.4163 29.9458 31.4163 28.7359 30.6744 27.9939L30.3208 28.3475L29.9673 28.7011C30.3187 29.0525 30.3187 29.6292 29.9673 29.9806L30.3208 30.3342ZM30.3208 28.3475L30.6752 27.9948L25.0219 22.3148L24.6675 22.6675L24.3131 23.0202L29.9664 28.7002L30.3208 28.3475ZM16.6675 22.6675L16.6675 22.1675C13.6236 22.1675 11.1675 19.7114 11.1675 16.6675H10.6675H10.1675C10.1675 20.2636 13.0714 23.1675 16.6675 23.1675V22.6675ZM10.6675 16.6675H11.1675C11.1675 13.6236 13.6236 11.1675 16.6675 11.1675V10.6675V10.1675C13.0714 10.1675 10.1675 13.0714 10.1675 16.6675H10.6675ZM16.6675 10.6675V11.1675C19.7114 11.1675 22.1675 13.6236 22.1675 16.6675H22.6675H23.1675C23.1675 13.0714 20.2636 10.1675 16.6675 10.1675V10.6675ZM22.6675 16.6675H22.1675C22.1675 19.7114 19.7114 22.1675 16.6675 22.1675L16.6675 22.6675V23.1675C20.2636 23.1675 23.1675 20.2636 23.1675 16.6675H22.6675Z" fill="#0D82FF"/>
</svg>
