<svg width="32" height="32" viewBox="0 0 32 32" fill="none" xmlns="http://www.w3.org/2000/svg">
<mask id="mask0_1765_2196" style="mask-type:alpha" maskUnits="userSpaceOnUse" x="0" y="0" width="32" height="32">
<rect width="32" height="32" fill="#D9D9D9"/>
</mask>
<g mask="url(#mask0_1765_2196)">
<path d="M10.6666 22.6665V19.9998H13.5666C13.4555 20.4443 13.3833 20.8887 13.3499 21.3332C13.3166 21.7776 13.3221 22.2221 13.3666 22.6665H10.6666ZM10.6666 29.3332C8.82214 29.3332 7.24992 28.6832 5.94992 27.3832C4.64992 26.0832 3.99992 24.5109 3.99992 22.6665V10.6665C3.26659 10.6665 2.63881 10.4054 2.11659 9.88317C1.59436 9.36095 1.33325 8.73317 1.33325 7.99984V5.33317C1.33325 4.59984 1.59436 3.97206 2.11659 3.44984C2.63881 2.92762 3.26659 2.6665 3.99992 2.6665H17.3333C18.0666 2.6665 18.6944 2.92762 19.2166 3.44984C19.7388 3.97206 19.9999 4.59984 19.9999 5.33317V7.99984C19.9999 8.73317 19.7388 9.36095 19.2166 9.88317C18.6944 10.4054 18.0666 10.6665 17.3333 10.6665V14.6998C16.7999 15.0332 16.311 15.4221 15.8666 15.8665C15.4221 16.3109 15.0333 16.7998 14.6999 17.3332H10.6666V14.6665H14.6666V10.6665H6.66659V22.6665C6.66659 23.7776 7.05547 24.7221 7.83325 25.4998C8.61103 26.2776 9.55547 26.6665 10.6666 26.6665C11.3333 26.6665 11.9388 26.5221 12.4833 26.2332C13.0277 25.9443 13.4888 25.5443 13.8666 25.0332C14.0444 25.4776 14.2444 25.8998 14.4666 26.2998C14.6888 26.6998 14.9555 27.0887 15.2666 27.4665C14.6666 28.0443 13.9777 28.4998 13.1999 28.8332C12.4221 29.1665 11.5777 29.3332 10.6666 29.3332ZM3.99992 7.99984H17.3333V5.33317H3.99992V7.99984ZM24.3666 24.3665C25.011 23.7221 25.3333 22.9332 25.3333 21.9998C25.3333 21.0665 25.011 20.2776 24.3666 19.6332C23.7221 18.9887 22.9333 18.6665 21.9999 18.6665C21.0666 18.6665 20.2777 18.9887 19.6333 19.6332C18.9888 20.2776 18.6666 21.0665 18.6666 21.9998C18.6666 22.9332 18.9888 23.7221 19.6333 24.3665C20.2777 25.0109 21.0666 25.3332 21.9999 25.3332C22.9333 25.3332 23.7221 25.0109 24.3666 24.3665ZM28.7999 30.6665L25.1999 27.0665C24.711 27.3776 24.1999 27.611 23.6666 27.7665C23.1333 27.9221 22.5777 27.9998 21.9999 27.9998C20.3333 27.9998 18.9166 27.4165 17.7499 26.2498C16.5833 25.0832 15.9999 23.6665 15.9999 21.9998C15.9999 20.3332 16.5833 18.9165 17.7499 17.7498C18.9166 16.5832 20.3333 15.9998 21.9999 15.9998C23.6666 15.9998 25.0833 16.5832 26.2499 17.7498C27.4166 18.9165 27.9999 20.3332 27.9999 21.9998C27.9999 22.5776 27.9221 23.1332 27.7666 23.6665C27.611 24.1998 27.3777 24.7109 27.0666 25.1998L30.6666 28.7998L28.7999 30.6665Z" fill="#1C1B1F"/>
</g>
</svg>
