<svg width="41" height="47" viewBox="0 0 41 47" fill="none" xmlns="http://www.w3.org/2000/svg">
<path d="M40.32 46.02C37.12 46.02 33.88 45.04 30.6 43.08C27.36 41.16 24.5 38.66 22.02 35.58C19.54 32.46 17.78 29.28 16.74 26.04L23.58 24C24.62 27.12 26.38 30.06 28.86 32.82C29.94 31.54 30.78 29.96 31.38 28.08C32.02 26.2 32.34 24.06 32.34 21.66C32.34 18.42 31.78 15.68 30.66 13.44C29.58 11.16 28.08 9.46 26.16 8.34C24.28 7.18 22.14 6.6 19.74 6.6C17.34 6.6 15.2 7.18 13.32 8.34C11.44 9.46 9.94 11.16 8.82 13.44C7.74 15.68 7.2 18.42 7.2 21.66C7.2 24.9 7.74 27.66 8.82 29.94C9.94 32.22 11.44 33.94 13.32 35.1C15.2 36.22 17.34 36.78 19.74 36.78V43.38C16.06 43.38 12.72 42.52 9.72 40.8C6.76 39.08 4.4 36.58 2.64 33.3C0.88 30.02 0 26.14 0 21.66C0 17.14 0.86 13.26 2.58 10.02C4.34 6.74 6.72 4.26 9.72 2.58C12.72 0.86 16.06 0 19.74 0C23.42 0 26.76 0.86 29.76 2.58C32.76 4.26 35.14 6.74 36.9 10.02C38.66 13.26 39.54 17.14 39.54 21.66C39.54 24.94 39.08 27.9 38.16 30.54C37.24 33.18 35.9 35.44 34.14 37.32C36.38 38.72 38.44 39.42 40.32 39.42V46.02Z" fill="#FF522C"/>
</svg>
