<svg width="40" height="40" viewBox="0 0 40 40" fill="none" xmlns="http://www.w3.org/2000/svg">
<mask id="mask0_2453_414" style="mask-type:alpha" maskUnits="userSpaceOnUse" x="0" y="0" width="40" height="40">
<rect width="40" height="40" fill="#D9D9D9"/>
</mask>
<g mask="url(#mask0_2453_414)">
<path d="M20.0097 16.4286V12.1429H15.8068L15.8068 9.28571H20.0097V5H22.8116V9.28571H27.0145V12.1429H22.8116L22.8116 16.4286H20.0097ZM12.4269 34.1607C11.8782 33.6012 11.6039 32.9286 11.6039 32.1429C11.6039 31.3571 11.8782 30.6845 12.4269 30.125C12.9756 29.5655 13.6353 29.2857 14.4058 29.2857C15.1763 29.2857 15.8359 29.5655 16.3847 30.125C16.9334 30.6845 17.2077 31.3571 17.2077 32.1429C17.2077 32.9286 16.9334 33.6012 16.3847 34.1607C15.8359 34.7202 15.1763 35 14.4058 35C13.6353 35 12.9756 34.7202 12.4269 34.1607ZM26.4366 34.1607C25.8879 33.6012 25.6135 32.9286 25.6135 32.1429C25.6135 31.3571 25.8879 30.6845 26.4366 30.125C26.9853 29.5655 27.6449 29.2857 28.4155 29.2857C29.186 29.2857 29.8456 29.5655 30.3943 30.125C30.943 30.6845 31.2174 31.3571 31.2174 32.1429C31.2174 32.9286 30.943 33.6012 30.3943 34.1607C29.8456 34.7202 29.186 35 28.4155 35C27.6449 35 26.9853 34.7202 26.4366 34.1607ZM6 9.28571L6 6.42857H10.5882L16.5423 19.2857H26.349L31.8128 9.28571H35L28.8358 20.6429C28.5789 21.119 28.2345 21.4881 27.8025 21.75C27.3706 22.0119 26.8977 22.1429 26.3841 22.1429H15.9469L14.4058 25H31.2174V27.8571H14.4058C13.3551 27.8571 12.5554 27.3929 12.0066 26.4643C11.4579 25.5357 11.4404 24.5952 11.9541 23.6429L13.8454 20.1429L8.80193 9.28571H6Z" fill="white"/>
</g>
</svg>
