<svg width="164" height="193" viewBox="0 0 164 193" fill="none" xmlns="http://www.w3.org/2000/svg">
<path d="M154.5 41.4H67.8002L62.7002 67.2C67.3002 65 72.3002 63.2 77.7002 61.8C83.3002 60.2 89.9002 59.4 97.5002 59.4C109.5 59.4 119.5 61.1 127.5 64.5C135.5 67.9 141.9 72.4 146.7 78C151.7 83.6 155.2 89.9 157.2 96.9C159.4 103.7 160.5 110.5 160.5 117.3C160.5 128.1 158.2 138.1 153.6 147.3C149.2 156.5 142.8 164.5 134.4 171.3C126.2 178.1 116.1 183.4 104.1 187.2C92.1002 191 78.6002 192.9 63.6002 192.9C57.8002 192.9 52.2002 192.5 46.8002 191.7C41.4002 191.1 36.1002 189.9 30.9002 188.1C25.9002 186.1 20.8002 183.5 15.6002 180.3C10.6002 177.1 5.4002 172.9 0.000195327 167.7L8.7002 126H56.1002C55.7002 129 55.4002 131.6 55.2002 133.8C55.0002 136 54.9002 139.5 54.9002 144.3C54.9002 154.3 56.2002 161.4 58.8002 165.6C61.4002 169.8 65.1002 171.9 69.9002 171.9C74.9002 171.9 79.2002 170 82.8002 166.2C86.4002 162.4 89.3002 157.7 91.5002 152.1C93.7002 146.3 95.3002 140.1 96.3002 133.5C97.3002 126.9 97.8002 120.7 97.8002 114.9C97.8002 110.9 97.5002 107.1 96.9002 103.5C96.3002 99.7 95.3002 96.4 93.9002 93.6C92.5002 90.8 90.6002 88.6 88.2002 87C85.8002 85.2 82.8002 84.3 79.2002 84.3C75.6002 84.3 71.8002 85.4 67.8002 87.6C63.8002 89.8 59.9002 94.1 56.1002 100.5H19.2002L40.8002 -1.50204e-05H163.2L154.5 41.4Z" fill="#79FF9D" fill-opacity="0.05"/>
</svg>
