<svg width="46" height="46" viewBox="0 0 46 46" fill="none" xmlns="http://www.w3.org/2000/svg">
<g clip-path="url(#clip0_1831_48367)">
<mask id="mask0_1831_48367" style="mask-type:luminance" maskUnits="userSpaceOnUse" x="0" y="0" width="46" height="46">
<path d="M45.9385 0H0V45.9385H45.9385V0Z" fill="white"/>
</mask>
<g mask="url(#mask0_1831_48367)">
<path d="M43.4946 33.2725C40.7399 38.7549 36.0272 42.8329 30.2073 44.7639C26.4533 46.0062 22.5373 46.2627 18.7564 45.5471C16.6769 45.1555 14.6243 44.4668 12.6798 43.4945C7.19747 40.7399 3.11945 36.0272 1.18846 30.2072C-0.756029 24.3737 -0.296914 18.1487 2.44428 12.6798C5.19897 7.19743 9.92516 3.1059 15.7451 1.17491C21.5651 -0.756072 27.7901 -0.31046 33.2725 2.44423C38.7549 5.19892 42.8329 9.91161 44.7639 15.7316C46.6949 21.5515 46.2493 27.7766 43.4946 33.259" fill="#F5D652"/>
<path d="M43.157 16.2718C41.3746 10.8839 37.5801 6.50884 32.5029 3.95669C27.4256 1.40455 21.6596 0.985948 16.2718 2.7819C10.8839 4.56435 6.50884 8.3588 3.95669 13.4361C1.40455 18.5134 0.985948 24.2793 2.7819 29.6672C4.56435 35.055 8.3453 39.4301 13.4361 41.9823C15.2455 42.887 17.136 43.5216 19.067 43.8862C22.5644 44.5479 26.1968 44.3048 29.6807 43.157C35.0685 41.3746 39.4436 37.5801 41.9958 32.5029C44.5479 27.4256 44.9665 21.6596 43.1706 16.2718M40.0783 31.5576C35.3386 40.9965 23.8202 44.818 14.3813 40.0783C9.81717 37.7827 6.40081 33.8532 4.79391 28.992C3.187 24.1443 3.5651 18.9455 5.84717 14.3813C8.14275 9.81717 12.0722 6.40081 16.9335 4.79391C20.0662 3.75414 23.3341 3.53809 26.4804 4.13224C28.2223 4.45632 29.9237 5.03697 31.5441 5.84717C40.983 10.5869 44.8045 22.1053 40.0648 31.5441" fill="#040000"/>
<path d="M20.5796 35.7435C19.4048 35.5275 18.2435 35.1359 17.1362 34.5822C14.0304 33.0294 11.7213 30.3557 10.6276 27.0609C9.5338 23.766 9.79036 20.2416 11.3433 17.1359C11.5998 16.6092 12.248 16.3932 12.7746 16.6632C13.3012 16.9198 13.5173 17.568 13.2472 18.0946C11.9509 20.6872 11.7349 23.631 12.6396 26.3857C13.5578 29.1404 15.4888 31.3819 18.0814 32.6783C20.6741 33.9746 23.6178 34.1906 26.3725 33.2859C29.1272 32.3677 31.3688 30.4367 32.6651 27.844C32.9217 27.3174 33.5698 27.1014 34.0965 27.3714C34.6231 27.628 34.8392 28.2762 34.5691 28.8028C33.0162 31.9086 30.3425 34.2176 27.0477 35.3114C24.9277 36.0136 22.6996 36.1621 20.5661 35.757" fill="#040000"/>
<path d="M23.7258 12.896C23.5098 14.4624 22.9156 15.8532 22.2135 17.2171C21.4708 18.5674 20.6471 19.8367 19.4858 20.89C18.1759 22.0243 16.1774 20.944 16.38 19.2426C16.7176 17.001 17.8114 14.827 19.0807 12.9905C19.5263 12.3693 20.0124 11.7752 20.6201 11.2486C21.4033 10.5734 22.5916 10.6544 23.2667 11.4376C23.6313 11.8562 23.7799 12.3963 23.7123 12.896" fill="#040000"/>
<path d="M34.0017 18.3513C33.7857 19.9177 33.1915 21.3085 32.4893 22.6724C31.7467 24.0227 30.923 25.292 29.7617 26.3453C28.4518 27.4796 26.4533 26.3993 26.6559 24.6979C26.9935 22.4563 28.0872 20.2823 29.3566 18.4458C29.8022 17.8247 30.2883 17.2305 30.8959 16.7039C31.6791 16.0287 32.8674 16.1097 33.5426 16.8929C33.9072 17.3115 34.0557 17.8517 33.9882 18.3513" fill="#040000"/>
</g>
</g>
<defs>
<clipPath id="clip0_1831_48367">
<rect width="45.9385" height="45.9385" fill="white"/>
</clipPath>
</defs>
</svg>
