<svg width="40" height="40" viewBox="0 0 40 40" fill="none" xmlns="http://www.w3.org/2000/svg">
<path d="M20 8C22.216 8 24.1464 8.42697 25.7913 9.2809C27.4361 10.1348 28.7155 11.3933 29.6293 13.0562C30.5431 14.7191 31 16.7303 31 19.0899V32H25.4486V26.3371H14.4829V32H9L9 19.0899C9 16.7303 9.45691 14.7191 10.3707 13.0562C11.2845 11.3933 12.5639 10.1348 14.2087 9.2809C15.8536 8.42697 17.784 8 20 8ZM25.4486 21.9551V18.5843C25.4486 16.6292 24.9574 15.1573 23.9751 14.1685C22.9927 13.1573 21.6563 12.6517 19.9657 12.6517C18.2523 12.6517 16.9045 13.1573 15.9221 14.1685C14.9626 15.1573 14.4829 16.6292 14.4829 18.5843L14.4829 21.9551H25.4486Z" fill="white"/>
</svg>
