<svg width="40" height="40" viewBox="0 0 40 40" fill="none" xmlns="http://www.w3.org/2000/svg">
<path d="M26.6137 19.52C27.9844 19.9543 29.0582 20.6857 29.8349 21.7143C30.6116 22.72 31 23.9657 31 25.4514C31 27.5543 30.1776 29.1771 28.5327 30.32C26.9107 31.44 24.5348 32 21.405 32H9L9 8L20.7196 8C23.6438 8 25.8827 8.56 27.4361 9.68C29.0125 10.8 29.8006 12.32 29.8006 14.24C29.8006 15.4057 29.5151 16.4457 28.9439 17.36C28.3956 18.2743 27.6189 18.9943 26.6137 19.52ZM14.5171 12.1829L14.5171 17.84H20.0343C21.405 17.84 22.4444 17.6 23.1526 17.12C23.8609 16.64 24.215 15.9314 24.215 14.9943C24.215 14.0571 23.8609 13.36 23.1526 12.9029C22.4444 12.4229 21.405 12.1829 20.0343 12.1829H14.5171ZM20.9938 27.8171C22.4559 27.8171 23.5524 27.5771 24.2835 27.0971C25.0374 26.6171 25.4143 25.8743 25.4143 24.8686C25.4143 22.88 23.9408 21.8857 20.9938 21.8857H14.5171V27.8171H20.9938Z" fill="white"/>
</svg>
