<svg width="27" height="40" viewBox="0 0 27 40" fill="none" xmlns="http://www.w3.org/2000/svg">
<path d="M21.8828 13.4818C17.7125 12.95 13.6321 12.3163 9.63033 10.9698V13.6742C14.0705 11.8185 18.4206 9.67986 23.1755 8.74068C22.6584 8.22017 22.1414 7.69966 21.6355 7.17915C20.8374 12.1806 15.6442 14.9415 14.3964 19.8637H17.0155C16.0713 13.6063 15.3294 7.1452 15.3294 0.80857C14.8685 1.00093 14.4077 1.19329 13.9468 1.38566C16.3973 4.37293 18.1846 7.7336 19.8145 11.2188C21.3208 14.4436 22.31 18.3362 24.6818 21.0292C25.2551 21.6742 26.1431 20.9726 26.0082 20.2485C25.345 16.752 23.2542 13.2782 21.7254 10.0872C20.0056 6.48891 18.016 2.96981 15.0934 0.220168C14.5988 -0.243764 13.6995 0.0617523 13.7107 0.797254C13.8681 7.24704 15.1608 13.7874 14.3515 20.2145C14.1604 21.7647 16.6334 22.0363 17.0155 20.5766C18.2858 15.6657 23.1193 12.8934 24.0635 7.84676C24.1984 7.11126 23.7263 6.16076 22.8495 6.23997C17.7687 6.76048 13.2049 9.10277 8.56245 11.083C7.37093 11.5922 7.86552 13.3234 8.89968 13.6516C13.1487 15.0094 17.4764 15.5073 21.8941 15.9373C23.4903 16.0957 23.434 13.6516 21.8941 13.4592L21.8828 13.4818Z" fill="#FF522C"/>
<path d="M14.0259 31.9486C9.85555 31.4168 5.77514 30.7831 1.77341 29.4366V32.141C6.21353 30.2853 10.5637 28.1467 15.3186 27.2075C14.8015 26.687 14.2844 26.1665 13.7786 25.6459C12.9805 30.6474 7.78724 33.4083 6.53951 38.3305H9.15862C8.21439 32.0731 7.4725 25.612 7.4725 19.2754C7.01163 19.4677 6.55075 19.6601 6.08988 19.8525C8.54038 22.8397 10.3277 26.2004 11.9576 29.6855C13.4639 32.9104 14.453 36.8029 16.8136 39.496C17.3869 40.1523 18.2749 39.4394 18.14 38.7153C17.4768 35.2188 15.386 31.745 13.8573 28.554C12.1374 24.9557 10.1478 21.4366 7.2252 18.687C6.73061 18.223 5.83134 18.5285 5.84258 19.2641C5.99995 25.7138 7.29265 32.2541 6.48331 38.6813C6.29221 40.2315 8.76519 40.5031 9.14738 39.0434C10.4176 34.1325 15.2511 31.3602 16.1954 26.3136C16.3303 25.5781 15.8581 24.6276 14.9814 24.7068C9.90051 25.2273 5.33674 27.5696 0.69429 29.5611C-0.497236 30.0703 -0.00264062 31.8015 1.03151 32.1297C5.28054 33.4875 9.60825 33.9854 14.0259 34.4154C15.6221 34.5738 15.5659 32.1297 14.0259 31.9373V31.9486Z" fill="#FF522C"/>
</svg>
