<svg width="166" height="88" viewBox="0 0 166 88" fill="none" xmlns="http://www.w3.org/2000/svg">
<rect width="158" height="53" transform="translate(0 35.9253) rotate(-13.1426)" fill="#5D22C4"/>
<path d="M25.6269 65.1273C24.1273 65.4774 22.7873 65.5117 21.607 65.23C20.4376 64.9307 19.4427 64.2819 18.6223 63.2837C17.8018 62.2854 17.1881 60.915 16.7813 59.1726C16.181 56.6017 16.3571 54.5499 17.3096 53.0172C18.2729 51.4669 19.8687 50.4316 22.0968 49.9114C23.325 49.6246 24.4732 49.5749 25.5411 49.7623C26.6233 49.9464 27.5396 50.3876 28.29 51.086C29.0514 51.7667 29.5805 52.7426 29.8773 54.0137L27.435 54.584C27.2516 53.7984 26.9339 53.1798 26.4821 52.7281C26.0302 52.2763 25.4655 51.9864 24.788 51.8585C24.1247 51.7272 23.3932 51.7549 22.5934 51.9416C21.5936 52.1751 20.7905 52.5735 20.184 53.1368C19.5885 53.6825 19.2039 54.3898 19.0303 55.2587C18.8709 56.1243 18.933 57.1641 19.2164 58.3781L19.3265 58.8494C19.6099 60.0634 20.0148 61.0232 20.541 61.7287C21.0814 62.4308 21.7395 62.8947 22.5151 63.1202C23.2873 63.3315 24.1805 63.3188 25.1946 63.082C26.0229 62.8886 26.7142 62.5916 27.2683 62.1911C27.8191 61.7764 28.1971 61.2664 28.4022 60.6613C28.6216 60.0528 28.6395 59.3558 28.4561 58.5702L30.8127 58.02C31.1095 59.2911 31.069 60.4076 30.6911 61.3694C30.3275 62.3278 29.6997 63.122 28.8075 63.752C27.9297 64.3787 26.8695 64.8371 25.6269 65.1273ZM41.4507 61.4325C39.9368 61.786 38.5578 61.8143 37.3137 61.5174C36.0838 61.2172 35.0373 60.573 34.174 59.5847C33.3249 58.5931 32.702 57.2475 32.3051 55.5479C31.905 53.834 31.8676 52.3517 32.1931 51.1009C32.5295 49.8325 33.1825 48.7914 34.1522 47.9776C35.1362 47.1605 36.3852 46.5752 37.8991 46.2217C39.4416 45.8615 40.8278 45.8316 42.0576 46.1318C43.2874 46.432 44.3268 47.0779 45.1759 48.0695C46.0359 49.0435 46.6659 50.3874 47.0661 52.1013C47.463 53.801 47.4932 55.285 47.1568 56.5533C46.8346 57.8184 46.1887 58.8578 45.219 59.6716C44.2493 60.4854 42.9932 61.0724 41.4507 61.4325ZM40.9755 59.3973C41.761 59.2139 42.4287 58.945 42.9786 58.5907C43.5427 58.2331 43.9802 57.7845 44.291 57.2451C44.6161 56.7023 44.8074 56.0702 44.8649 55.3489C44.9367 54.6243 44.8692 53.8192 44.6624 52.9337L44.5524 52.4624C44.3389 51.5483 44.0396 50.7823 43.6543 50.1644C43.2834 49.5431 42.8319 49.0611 42.3001 48.7184C41.7825 48.3724 41.1916 48.1639 40.5275 48.0931C39.8776 48.0189 39.1599 48.0735 38.3743 48.2569C37.6031 48.437 36.9354 48.7059 36.3713 49.0635C35.8214 49.4178 35.384 49.8664 35.0589 50.4092C34.748 50.9486 34.5639 51.579 34.5064 52.3003C34.4489 53.0216 34.5268 53.8393 34.7403 54.7534L34.8503 55.2247C35.0571 56.1102 35.346 56.8636 35.7169 57.4849C36.0879 58.1061 36.5322 58.5898 37.0498 58.9358C37.5816 59.2785 38.1725 59.487 38.8224 59.5612C39.4865 59.632 40.2042 59.5774 40.9755 59.3973ZM51.5489 58.8036L48.1174 44.1069L51.8665 43.2315L56.7968 51.4785C56.9425 51.7156 57.0966 51.9884 57.259 52.2969C57.4214 52.6053 57.5733 52.9012 57.7147 53.1845C57.8705 53.4644 57.9964 53.7136 58.0926 53.9321L58.264 53.8921C58.2426 53.6712 58.2325 53.4025 58.2339 53.0858C58.2353 52.7692 58.2333 52.4383 58.2281 52.0932C58.2371 51.7447 58.251 51.4176 58.27 51.1119L59.0649 41.5508L62.7498 40.6904L66.1813 55.3871L63.8033 55.9423L61.9224 47.887C61.7957 47.3443 61.6711 46.7784 61.5487 46.1895C61.4262 45.6006 61.3188 45.076 61.2264 44.6156C61.1339 44.1552 61.0727 43.8607 61.0427 43.7322L60.8713 43.7722C60.8794 43.936 60.8714 44.224 60.8472 44.6363C60.8339 45.031 60.8201 45.456 60.8059 45.9111C60.7917 46.3663 60.7713 46.7626 60.7447 47.1002L59.8827 56.8577L57.7618 57.353L52.6729 49.0074C52.5239 48.7561 52.356 48.4564 52.1693 48.1084C51.9826 47.7604 51.7943 47.4053 51.6043 47.043C51.4143 46.6807 51.2469 46.3508 51.1021 46.0532L50.9307 46.0933C51.025 46.4327 51.1305 46.8524 51.2472 47.3523C51.3782 47.8488 51.5109 48.3525 51.6453 48.8633C51.7763 49.3599 51.8884 49.8081 51.9818 50.208L53.8627 58.2634L51.5489 58.8036ZM69.667 54.5732L66.2355 39.8765L73.5624 38.1657C74.605 37.9223 75.5142 37.9133 76.2898 38.1389C77.0654 38.3645 77.7046 38.78 78.2074 39.3855C78.7212 39.9734 79.0865 40.7316 79.3033 41.6599C79.52 42.5883 79.5261 43.4529 79.3215 44.2537C79.1136 45.0403 78.6976 45.7097 78.0735 46.2621C77.4637 46.8111 76.6518 47.204 75.6377 47.4408L70.7959 48.5713L72.0665 54.0129L69.667 54.5732ZM70.3157 46.5146L75.0504 45.4091C75.8073 45.2324 76.3467 44.8655 76.6685 44.3084C77.0045 43.748 77.0775 43.0607 76.8874 42.2466C76.7607 41.7039 76.5611 41.2685 76.2887 40.9405C76.013 40.5982 75.6733 40.3688 75.2696 40.2522C74.8658 40.1356 74.3926 40.1407 73.8498 40.2674L69.1152 41.3729L70.3157 46.5146ZM83.9565 51.2367L80.525 36.54L82.9244 35.9798L85.8708 48.5984L93.1977 46.8876L93.6829 48.9657L83.9565 51.2367ZM95.7772 48.4767L92.3457 33.78L103.743 31.1188L104.223 33.1755L95.2254 35.2764L96.1808 39.3684L104.236 37.4875L104.716 39.5442L96.661 41.4251L97.6965 45.8598L106.823 43.7288L107.303 45.7855L95.7772 48.4767ZM113.812 44.2657L110.861 31.6257L105.998 32.7612L105.518 30.7045L117.686 27.8632L118.167 29.9199L113.261 31.0654L116.212 43.7054L113.812 44.2657ZM123.331 42.0431L119.9 27.3464L131.297 24.6853L131.777 26.7419L122.779 28.8429L123.735 32.9348L131.79 31.054L132.27 33.1107L124.215 34.9915L125.25 39.4262L134.377 37.2953L134.857 39.3519L123.331 42.0431ZM137.767 38.6725L134.335 23.9758L140.013 22.6502C141.527 22.2967 142.881 22.2591 144.076 22.5375C145.267 22.8015 146.275 23.4096 147.1 24.3617C147.935 25.2961 148.551 26.6132 148.948 28.3128C149.342 29.9981 149.373 31.4519 149.04 32.6741C148.723 33.893 148.09 34.8917 147.142 35.6702C146.191 36.4345 144.958 36.9934 143.444 37.3469L137.767 38.6725ZM139.686 36.0556L142.943 35.2952C143.7 35.1185 144.348 34.8618 144.886 34.5251C145.44 34.1851 145.868 33.7613 146.171 33.2537C146.488 32.7428 146.674 32.1498 146.727 31.4747C146.791 30.7819 146.722 29.9999 146.518 29.1287L146.413 28.6788C146.206 27.7933 145.923 27.0613 145.562 26.4829C145.212 25.8869 144.781 25.4301 144.27 25.1127C143.774 24.7918 143.202 24.6015 142.555 24.5416C141.923 24.4784 141.228 24.5351 140.472 24.7119L137.215 25.4722L139.686 36.0556Z" fill="white"/>
</svg>
