<svg width="60" height="60" viewBox="0 0 60 60" fill="none" xmlns="http://www.w3.org/2000/svg">
<path d="M30.5 10.5C34.567 10.5 38.1039 11.3134 41.0918 12.9619C44.0718 14.6061 46.3726 16.906 47.9854 19.8545L48.2852 20.4072C49.7338 23.2039 50.4501 26.4396 50.4502 30.0996C50.4502 32.9581 49.9563 35.591 48.9619 37.9912L48.9609 37.9941C47.9684 40.3555 46.5634 42.4123 44.7471 44.1602H44.7461C42.9631 45.8745 40.8573 47.2092 38.4336 48.165C36.0029 49.1236 33.3565 49.5996 30.5 49.5996C26.5629 49.5996 23.0781 48.7846 20.0605 47.1387C17.0469 45.4948 14.6955 43.1954 13.0156 40.2471C11.334 37.2956 10.5 33.908 10.5 30.0996C10.5001 26.0675 11.2964 22.5804 12.9121 19.6582C14.526 16.7061 16.8308 14.437 19.8164 12.8584L19.8184 12.8564C22.8371 11.2785 26.4035 10.5 30.5 10.5ZM30.5 14.5C25.3246 14.5 21.4005 15.9061 18.6533 18.6533L18.6514 18.6553C15.9022 21.3725 14.5001 25.1649 14.5 30.0996C14.5 33.2589 15.1664 35.9863 16.4814 38.2979C17.8335 40.6156 19.6976 42.4162 22.0811 43.7061L22.5391 43.9346C24.8511 45.0405 27.5009 45.5996 30.5 45.5996C33.6954 45.5996 36.4759 44.9318 38.8574 43.6123C41.2456 42.2891 43.0948 40.4708 44.415 38.1523L44.417 38.1504C45.7688 35.8007 46.4502 33.1213 46.4502 30.0996C46.4501 26.8334 45.7967 24.0544 44.5127 21.7432C43.2273 19.4295 41.3988 17.648 39.0166 16.3926C36.6353 15.1376 33.8021 14.5 30.5 14.5Z" fill="#404040" stroke="#404040"/>
</svg>
