<svg width="44" height="44" viewBox="0 0 44 44" fill="none" xmlns="http://www.w3.org/2000/svg">
<g clip-path="url(#clip0_2377_1715)">
<path d="M28.45 30.72H15.5V34.41H28.45V30.72Z" fill="#73D7FF"/>
<path d="M28.45 34.89H15.5V38.58H28.45V34.89Z" fill="#73D7FF"/>
<path d="M32.9099 27C32.6999 27 32.5099 26.92 32.3599 26.76C32.2199 26.61 32.1499 26.42 32.1599 26.22C32.1599 26.02 32.2499 25.84 32.3999 25.7C35.2599 23.02 36.8399 19.44 36.8399 15.62C36.8399 7.83 30.1899 1.49 22.0099 1.49C13.8299 1.49 7.16992 7.84 7.16992 15.63C7.16992 19.24 8.59992 22.68 11.1999 25.31C11.3399 25.45 11.4199 25.64 11.4199 25.84C11.4199 26.04 11.3399 26.23 11.1999 26.37C11.0599 26.51 10.8699 26.59 10.6699 26.59C10.4699 26.59 10.2799 26.51 10.1399 26.37C7.25992 23.46 5.66992 19.64 5.66992 15.63C5.66992 7.01 12.9899 0 21.9999 0C31.0099 0 38.3299 7.01 38.3299 15.63C38.3299 19.87 36.5799 23.84 33.4099 26.8C33.2699 26.93 33.0899 27 32.8999 27H32.9099Z" fill="#003575"/>
<path d="M24.8301 18.5C24.5401 18.5 24.2901 18.34 24.1601 18.09L22.5901 14.96C22.4801 14.73 22.2501 14.59 21.9901 14.59C21.7301 14.59 21.5101 14.73 21.3901 14.96L19.8201 18.09C19.6901 18.35 19.3901 18.44 19.1501 18.44C18.9101 18.44 18.6101 18.35 18.4801 18.09L15.6501 12.42C15.5601 12.24 15.5501 12.04 15.6101 11.85C15.6701 11.66 15.8101 11.51 15.9901 11.42C16.0901 11.37 16.2101 11.34 16.3201 11.34C16.6101 11.34 16.8601 11.5 16.9901 11.75L18.5601 14.88C18.6701 15.11 18.9001 15.25 19.1601 15.25C19.4201 15.25 19.6401 15.11 19.7601 14.88L21.3301 11.75C21.4601 11.49 21.7601 11.4 22.0001 11.4C22.2401 11.4 22.5401 11.49 22.6701 11.75L24.2401 14.88C24.3501 15.11 24.5801 15.25 24.8401 15.25C25.1001 15.25 25.3201 15.11 25.4401 14.88L27.0101 11.75C27.1401 11.49 27.3901 11.34 27.6801 11.34C27.8001 11.34 27.9101 11.37 28.0201 11.42C28.2001 11.51 28.3301 11.66 28.3901 11.85C28.4501 12.04 28.4401 12.24 28.3501 12.42L25.5201 18.09C25.3901 18.35 25.1401 18.5 24.8501 18.5H24.8301Z" fill="#003575"/>
<path d="M21.9999 44C20.0199 44 18.4199 42.39 18.4199 40.42C18.4199 40.05 18.1199 39.75 17.7499 39.75H17.0399C15.4499 39.75 14.1699 38.46 14.1699 36.88C14.1699 36.26 14.3699 35.67 14.7599 35.16C14.9399 34.92 14.9399 34.59 14.7599 34.35C14.3699 33.84 14.1699 33.24 14.1699 32.63C14.1699 31.04 15.4599 29.76 17.0399 29.76H17.7499C18.1199 29.76 18.4199 29.46 18.4199 29.09V23.42C18.4199 23.01 18.7599 22.67 19.1699 22.67C19.5799 22.67 19.9199 23.01 19.9199 23.42V29.09C19.9199 29.46 20.2199 29.76 20.5899 29.76H23.4199C23.7899 29.76 24.0899 29.46 24.0899 29.09V23.42C24.0899 23.01 24.4299 22.67 24.8399 22.67C25.2499 22.67 25.5899 23.01 25.5899 23.42V29.09C25.5899 29.46 25.8899 29.76 26.2599 29.76H26.9699C28.5599 29.76 29.8399 31.05 29.8399 32.63C29.8399 33.25 29.6399 33.84 29.2499 34.35C29.0699 34.59 29.0699 34.92 29.2499 35.16C29.6399 35.67 29.8399 36.27 29.8399 36.88C29.8399 38.47 28.5499 39.75 26.9699 39.75H26.2599C25.8899 39.75 25.5899 40.05 25.5899 40.42C25.5899 42.4 23.9799 44 22.0099 44H21.9999ZM20.5799 39.75C20.2099 39.75 19.9099 40.05 19.9099 40.42C19.9099 41.57 20.8399 42.5 21.9899 42.5C23.1399 42.5 24.0699 41.56 24.0699 40.42C24.0699 40.05 23.7699 39.75 23.3999 39.75H20.5699H20.5799ZM17.0399 35.5C16.2899 35.5 15.6599 36.13 15.6599 36.88C15.6599 37.63 16.2899 38.25 17.0399 38.25H26.9599C27.7099 38.25 28.3399 37.62 28.3399 36.88C28.3399 36.14 27.7099 35.5 26.9599 35.5H17.0399ZM17.0399 31.25C16.2899 31.25 15.6599 31.88 15.6599 32.62C15.6599 33.36 16.2899 34 17.0399 34H26.9599C27.7099 34 28.3399 33.37 28.3399 32.62C28.3399 31.87 27.7099 31.25 26.9599 31.25H17.0399Z" fill="#003575"/>
<path d="M40.4199 4.33C40.2199 4.33 40.0299 4.25 39.8899 4.11C39.7499 3.97 39.6699 3.78 39.6699 3.58C39.6699 3.38 39.7499 3.19 39.8899 3.05L42.7199 0.22C42.8599 0.08 43.0499 0 43.2499 0C43.4499 0 43.6399 0.08 43.7799 0.22C43.9199 0.36 43.9999 0.55 43.9999 0.75C43.9999 0.95 43.9199 1.14 43.7799 1.28L40.9499 4.11C40.8099 4.25 40.6199 4.33 40.4199 4.33Z" fill="#003575"/>
<path d="M3.58 4.33C3.38 4.33 3.19 4.25 3.05 4.11L0.22 1.28C0.08 1.14 0 0.95 0 0.75C0 0.55 0.08 0.36 0.22 0.22C0.36 0.08 0.55 0 0.75 0C0.95 0 1.14 0.08 1.28 0.22L4.11 3.05C4.25 3.19 4.33 3.38 4.33 3.58C4.33 3.78 4.25 3.97 4.11 4.11C3.97 4.25 3.78 4.33 3.58 4.33Z" fill="#003575"/>
<path d="M0.75 31.25C0.55 31.25 0.36 31.17 0.22 31.03C0.08 30.89 0 30.7 0 30.5C0 30.3 0.08 30.11 0.22 29.97L3.05 27.14C3.19 27 3.38 26.92 3.58 26.92C3.78 26.92 3.97 27 4.11 27.14C4.25 27.28 4.33 27.47 4.33 27.67C4.33 27.87 4.25 28.06 4.11 28.2L1.28 31.03C1.14 31.17 0.95 31.25 0.75 31.25Z" fill="#003575"/>
<path d="M43.2499 31.25C43.0499 31.25 42.8599 31.17 42.7199 31.03L39.8899 28.2C39.7499 28.06 39.6699 27.87 39.6699 27.67C39.6699 27.47 39.7499 27.28 39.8899 27.14C40.0299 27 40.2199 26.92 40.4199 26.92C40.6199 26.92 40.8099 27 40.9499 27.14L43.7799 29.97C43.9199 30.11 43.9999 30.3 43.9999 30.5C43.9999 30.7 43.9199 30.89 43.7799 31.03C43.6399 31.17 43.4499 31.25 43.2499 31.25Z" fill="#003575"/>
</g>
<defs>
<clipPath id="clip0_2377_1715">
<rect width="44" height="44" fill="white"/>
</clipPath>
</defs>
</svg>
