<svg width="26" height="26" viewBox="0 0 26 26" fill="none" xmlns="http://www.w3.org/2000/svg">
<path d="M23.9502 0.5C24.3744 0.5 24.7467 0.657456 25.0293 0.969727L25.1357 1.08008C25.3691 1.34525 25.5 1.6664 25.5 2.03027C25.5 2.46015 25.3044 2.81987 24.9863 3.09668L24.9873 3.09766C23.2873 4.64648 21.5751 6.24036 19.8516 7.87793C18.2833 9.38846 16.7948 10.8518 15.3857 12.2676C17.0419 13.9187 18.6583 15.6364 20.2324 17.4229C21.9189 19.3368 23.4431 21.2304 24.8047 23.1035C25.0047 23.3393 25.1152 23.622 25.1152 23.9365C25.1152 24.4508 24.8678 24.8693 24.4551 25.1709L24.4424 25.1807L24.4277 25.1895C24.1434 25.3696 23.8302 25.4667 23.4961 25.4668C22.9956 25.4668 22.5848 25.2343 22.291 24.834V24.835C20.9 22.9847 19.4045 21.1552 17.8037 19.3477L17.8018 19.3457C16.3153 17.6468 14.7969 16.0167 13.251 14.4512C12.2476 15.5075 11.2244 16.5983 10.1836 17.7256C9.04304 18.9641 7.92591 20.2031 6.83203 21.4414L6.8291 21.4453C5.73981 22.6565 4.74335 23.811 3.84082 24.9102C3.54027 25.2909 3.13056 25.4999 2.64453 25.5C2.29444 25.5 1.97303 25.3815 1.68945 25.1738V25.1748C1.29444 24.8933 1.05962 24.494 1.05957 24.0029C1.05957 23.6353 1.18719 23.303 1.43652 23.0322C2.36948 21.9026 3.40572 20.6972 4.54492 19.416C5.68994 18.1283 6.85818 16.8404 8.0498 15.5527C9.11381 14.403 10.1329 13.3243 11.1045 12.3154C10.4902 11.7192 9.90303 11.1601 9.33887 10.6426L9.33203 10.6367C8.68333 10.0204 7.98779 9.38127 7.24512 8.71973L7.23828 8.71387C6.49511 8.02982 5.62306 7.24507 4.62207 6.36035L4.61816 6.35645C3.64014 5.47143 2.43957 4.39824 1.01758 3.13574L1.00586 3.12402C0.69571 2.82934 0.5 2.46139 0.5 2.03027C0.500055 1.66352 0.65475 1.32627 0.882812 1.02832L0.907227 0.99707L0.935547 0.969727C1.24673 0.67411 1.62256 0.5 2.0498 0.5C2.45591 0.500059 2.81676 0.648341 3.11328 0.923828C4.63113 2.25506 5.98727 3.4642 7.17969 4.55273C8.36686 5.63648 9.47298 6.65467 10.498 7.60645L11.2842 8.31348C11.9393 8.91136 12.5788 9.52 13.2061 10.1357C13.7578 9.58146 14.3776 8.97363 15.0693 8.31641C15.9077 7.49775 16.7805 6.64561 17.6885 5.76074L17.6934 5.75684C18.6277 4.86904 19.5388 4.01388 20.4268 3.19238C21.3143 2.34922 22.1331 1.59364 22.8828 0.925781L22.8955 0.915039L22.9092 0.904297C23.2195 0.663132 23.5696 0.50007 23.9502 0.5Z" fill="#FF522C" stroke="#FF522C"/>
</svg>
