<svg width="145" height="28" viewBox="0 0 145 28" fill="none" xmlns="http://www.w3.org/2000/svg">
<g clip-path="url(#clip0_2219_2791)">
<path d="M38.2938 7.14002V8.34502H36.1102C36.1102 9.39502 36.4048 10.315 36.9938 11.085C37.461 11.69 38.0958 12.195 38.8981 12.59L38.1415 13.545C37.5524 13.26 37.0091 12.935 36.5114 12.565C35.9731 12.155 35.5567 11.745 35.2774 11.34C35.0134 11.74 34.6122 12.15 34.0688 12.565C33.5712 12.935 33.0329 13.26 32.4642 13.545L31.7837 12.59C32.5657 12.21 33.1852 11.71 33.627 11.085C34.1704 10.325 34.4446 9.41502 34.4446 8.34502H32.3728V7.14002H38.2989H38.2938ZM34.5919 16.42H41.3915V17.625H34.404C33.8657 17.625 33.4849 17.535 33.2462 17.345C33.0278 17.165 32.9212 16.865 32.9212 16.445V14.175H34.597V16.425L34.5919 16.42ZM41.3051 14.745H39.6294V10.705H37.786V9.48502H39.6294V6.89502H41.3051V14.745Z" fill="#231815"/>
<path d="M53.1118 12.2249H49.0594V13.7199H52.6141V17.6199H50.9434V14.9249H43.9356V13.7249H47.3887V12.2299H43.438V11.0249H50.7403C50.8063 10.7349 50.8622 10.4049 50.8977 10.0349C50.9282 9.7199 50.9434 9.3699 50.9434 8.9799V8.3699H43.9306V7.1499H52.6141V8.2949C52.6141 8.7399 52.5989 9.1899 52.5583 9.6499C52.5125 10.1749 52.4516 10.6299 52.3754 11.0249H53.1067V12.2299L53.1118 12.2249Z" fill="#231815"/>
<path d="M64.761 14.8202H60.7595V17.6352H59.0837V14.8202H54.9451V13.6152H64.761V14.8202ZM64.1923 7.11523V8.29023H57.1794V9.18023H64.1567V10.3502H57.1794V11.4202H64.2989V12.5952H57.1033C56.5497 12.5952 56.1435 12.4952 55.8947 12.3102C55.6357 12.1102 55.5138 11.7952 55.5138 11.3502V7.12023H64.1974L64.1923 7.11523Z" fill="#231815"/>
<path d="M72.8048 7.14014V8.31514H70.7025V10.7651C70.7025 12.0601 70.9919 13.1751 71.5759 14.1051C72.0685 14.8901 72.7388 15.4901 73.5767 15.8901L72.6017 16.8551C71.9314 16.4751 71.3829 16.0601 70.9513 15.5951C70.4587 15.0701 70.0931 14.4751 69.8646 13.8251C69.6564 14.4601 69.2857 15.0551 68.7576 15.5951C68.331 16.0351 67.7775 16.4551 67.1173 16.8551L66.2693 15.8901C67.0462 15.4851 67.6759 14.8801 68.1583 14.0951C68.7423 13.1601 69.0267 12.0551 69.0267 10.7801V8.32014H66.9142V7.14514H72.8099L72.8048 7.14014ZM75.7247 6.89014V11.2601H77.045V12.4951H75.7247V17.6151H74.054V6.89014H75.7247Z" fill="#231815"/>
<path d="M84.3878 7.14014V8.31514H82.2803V10.7651C82.2803 12.0601 82.5749 13.1751 83.1538 14.1051C83.6514 14.8901 84.3217 15.4901 85.1596 15.8901L84.1846 16.8551C83.5143 16.4751 82.9659 16.0601 82.5342 15.5951C82.0366 15.0701 81.671 14.4751 81.4475 13.8251C81.2393 14.4601 80.8686 15.0551 80.3354 15.5951C79.9038 16.0351 79.3655 16.4551 78.6952 16.8551L77.8472 15.8901C78.6241 15.4851 79.2589 14.8801 79.7362 14.0951C80.3202 13.1601 80.6046 12.0551 80.6046 10.7801V8.32014H78.4921V7.14514H84.3827L84.3878 7.14014ZM87.3026 6.89014V11.2601H88.628V12.4951H87.3026V17.6151H85.6319V6.89014H87.3026Z" fill="#231815"/>
<path d="M99.4494 16.87H89.7705V15.68H90.9994V10.85H92.6752V15.68H93.9853V10.85H95.656V15.68H99.4443V16.87H99.4494ZM98.9466 7.14502V11.22C98.9466 12.03 98.8908 12.8 98.7892 13.54C98.6826 14.29 98.5302 15 98.2865 15.81H96.6666C96.89 15.08 97.022 14.48 97.1236 13.865C97.2201 13.21 97.2709 12.515 97.2709 11.78V8.46002H90.258V7.15002H98.9466V7.14502Z" fill="#231815"/>
<path d="M110.966 11.6649V12.8699H109.326V14.0749H110.413V17.6349H108.737V15.2949H101.491V14.0799H102.643V12.8749H100.937V11.6699H110.972L110.966 11.6649ZM109.24 7.52986C109.976 7.94486 110.342 8.45986 110.342 9.07986C110.342 9.69986 109.976 10.1999 109.24 10.6149C108.433 11.0699 107.336 11.2899 105.949 11.2899C104.563 11.2899 103.456 11.0649 102.659 10.6149C101.933 10.1999 101.572 9.68486 101.572 9.07986C101.572 8.47486 101.938 7.94486 102.659 7.52986C103.456 7.08486 104.558 6.85986 105.949 6.85986C107.341 6.85986 108.433 7.08986 109.24 7.52986ZM103.959 8.38986C103.522 8.56986 103.304 8.79986 103.304 9.08486C103.304 9.36986 103.522 9.57986 103.959 9.75986C104.436 9.95486 105.091 10.0499 105.929 10.0499C106.767 10.0499 107.427 9.95486 107.909 9.75986C108.346 9.57986 108.565 9.35486 108.565 9.08486C108.565 8.81486 108.346 8.56986 107.909 8.38986C107.427 8.20486 106.767 8.10986 105.929 8.10986C105.091 8.10986 104.436 8.20486 103.959 8.38986ZM107.651 14.0699V12.8649H104.314V14.0699H107.651Z" fill="#231815"/>
<path d="M121.961 6.88988H120.285V9.19988H118.35C118.213 9.09488 118.051 8.99488 117.863 8.90988C117.68 8.82988 117.477 8.75988 117.238 8.69488H118.965V7.54988H116.654V6.87988H114.978V7.54988H112.602V8.69488H114.313C113.597 8.87488 113.089 9.19488 112.795 9.64488C112.531 10.0599 112.47 10.5549 112.612 11.1249C112.759 11.6049 113.084 12.0149 113.597 12.3499C114.186 12.7299 114.917 12.9149 115.781 12.9149C116.334 12.9149 116.827 12.8349 117.274 12.6749C117.39 12.6349 117.497 12.5849 117.599 12.5399H120.285L120.3 14.4249H115.248V13.5599H113.572V16.5999C113.572 16.8999 113.673 17.1449 113.882 17.3299C114.09 17.5299 114.374 17.6299 114.74 17.6299H121.971L121.956 6.88488L121.961 6.88988ZM114.623 11.3849C114.374 11.1499 114.247 10.8749 114.247 10.5699C114.247 10.2649 114.374 9.98488 114.623 9.76488C114.907 9.52488 115.298 9.39988 115.791 9.39988C116.283 9.39988 116.669 9.52488 116.964 9.76488C117.228 9.98488 117.36 10.2549 117.36 10.5699C117.36 10.8849 117.228 11.1499 116.964 11.3849C116.664 11.6499 116.268 11.7849 115.791 11.7849C115.314 11.7849 114.917 11.6499 114.623 11.3849ZM120.285 11.3999H118.838C118.858 11.3449 118.883 11.2949 118.899 11.2549C118.924 11.2049 118.944 11.1599 118.96 11.1249C118.99 10.9749 119.005 10.8349 119.015 10.7049C119.026 10.5649 119.015 10.4399 118.995 10.3299H120.285V11.3999ZM120.3 16.4349H115.248V15.6349H120.3V16.4349Z" fill="#231815"/>
<path d="M131.777 6.88986H133.437V17.6399H131.777V16.8599H123.997V15.6299H131.777V6.88986ZM129.811 7.86486C130.34 8.46486 130.604 9.21486 130.604 10.1149C130.604 11.0149 130.34 11.7649 129.811 12.3699C129.228 13.0499 128.43 13.3799 127.41 13.3799C126.389 13.3799 125.581 13.0499 125.008 12.3699C124.485 11.7649 124.226 11.0149 124.226 10.1149C124.226 9.21486 124.485 8.45986 125.008 7.86486C125.581 7.19486 126.389 6.85986 127.41 6.85986C128.43 6.85986 129.228 7.19486 129.811 7.86486ZM126.272 8.67486C126.038 9.04486 125.922 9.52986 125.922 10.1099C125.922 10.6899 126.038 11.1799 126.272 11.5499C126.546 11.9699 126.927 12.1849 127.425 12.1849C127.922 12.1849 128.293 11.9749 128.567 11.5499C128.806 11.1649 128.928 10.6899 128.928 10.1099C128.928 9.52986 128.806 9.05486 128.567 8.67486C128.288 8.24986 127.907 8.03986 127.425 8.03986C126.942 8.03986 126.546 8.24986 126.272 8.67486Z" fill="#231815"/>
<path d="M143.324 15.6749V6.88988H145V17.6299H143.324V16.8599H135.55V15.6699H138.089V13.9449C137.378 13.8199 136.799 13.5449 136.362 13.1249C135.961 12.7299 135.732 12.2749 135.671 11.7499C135.585 11.0249 135.737 10.3949 136.113 9.85988C136.53 9.28488 137.144 8.92988 137.957 8.77988H135.671V7.58988H138.002V6.87988H139.678V7.58988H142.222V8.77988H139.871C140.694 8.93488 141.308 9.29488 141.725 9.85988C142.116 10.3999 142.273 11.0299 142.197 11.7499C142.116 12.2749 141.872 12.7299 141.476 13.1249C141.039 13.5449 140.47 13.8199 139.769 13.9349V15.6699H143.324V15.6749ZM137.723 10.2049C137.449 10.4999 137.307 10.8549 137.307 11.2699C137.307 11.6849 137.444 12.0599 137.703 12.3549C137.997 12.6799 138.398 12.8399 138.901 12.8399C139.404 12.8399 139.841 12.6799 140.14 12.3549C140.43 12.0549 140.577 11.6949 140.577 11.2699C140.577 10.8249 140.44 10.4599 140.171 10.1849C139.876 9.88488 139.475 9.72488 138.957 9.72488C138.439 9.72488 138.048 9.88988 137.723 10.2099V10.2049Z" fill="#231815"/>
<path d="M25.5022 25.27C17.5448 23.8 11.7609 18.905 12.157 13.58C12.3855 10.525 14.6097 7.915 17.9917 6.205C15.8487 7.62 14.4827 9.53 14.3202 11.725C13.9648 16.465 19.6624 20.945 25.6545 21.14V0.645C14.9702 2.63 7.81519 9.6 8.31285 16.41C8.47027 18.55 9.36401 20.42 10.8113 21.935C7.45465 19.765 5.42849 16.6 5.49958 12.885C5.60114 7.855 9.52143 3.06 15.3257 0H0V25.27H15.6405C18.3472 26.78 20.9218 27.695 24.6542 27.945C32.1951 28.445 38.6139 25.595 40.8482 22.245C35.0795 26.8 25.4971 25.27 25.4971 25.27H25.5022Z" fill="#10A035"/>
</g>
<defs>
<clipPath id="clip0_2219_2791">
<rect width="145" height="28" fill="white"/>
</clipPath>
</defs>
</svg>
