<svg width="250" height="237" viewBox="0 0 250 237" fill="none" xmlns="http://www.w3.org/2000/svg">
<path opacity="0.34" d="M241.83 138.737C240.675 137.259 241.04 135.473 242.613 134.663L241.345 133.067C239.672 133.738 237.466 133.156 236.351 131.729C235.246 130.314 235.622 128.594 237.163 127.802L235.95 126.275C234.314 126.933 232.175 126.387 231.107 125.02C230.048 123.666 230.436 122.005 231.945 121.233L230.782 119.769C229.182 120.414 227.106 119.903 226.082 118.593C225.067 117.295 225.464 115.692 226.944 114.936L225.83 113.533C224.263 114.166 222.247 113.686 221.265 112.43C220.29 111.184 220.696 109.636 222.146 108.897L221.077 107.55C219.543 108.17 217.583 107.721 216.641 106.515C215.706 105.319 216.119 103.821 217.542 103.099L216.515 101.805C215.012 102.413 213.106 101.992 212.2 100.833C211.301 99.6835 211.72 98.2349 213.116 97.527L210.9 94.737C204.481 97.6532 196.301 95.9916 192.75 91.1797L66.7987 148.346C68.1321 154.198 63.9876 161.486 57.4941 164.436L58.1641 167.952C59.6321 167.358 61.0228 167.992 61.308 169.429C61.5963 170.879 60.655 172.602 59.1912 173.343L59.5017 174.973C60.9995 174.368 62.422 175.039 62.7199 176.534C63.0198 178.043 62.0648 179.827 60.5713 180.584L60.8946 182.282C62.4231 181.665 63.8805 182.374 64.1901 183.933C64.5027 185.504 63.5329 187.352 62.0086 188.128L62.3457 189.898C63.907 189.269 65.3995 190.019 65.7217 191.645C66.0471 193.284 65.0624 195.199 63.5064 195.994L63.8583 197.84C65.4525 197.199 66.9831 197.994 67.3202 199.69C67.6604 201.4 66.6598 203.387 65.0698 204.201L65.4366 206.128C67.0668 205.475 68.6367 206.318 68.9875 208.089C69.3426 209.875 68.3261 211.939 66.7022 212.774L67.0859 214.788C68.7522 214.121 70.3634 215.015 70.7312 216.867C71.1022 218.736 70.0698 220.88 68.4088 221.736L69.3204 226.523C76.9766 223.024 84.7834 227.224 86.8408 236.248L246.046 163.387C240.581 155.983 242.446 147.411 250 143.959L246.988 140.168C245.276 140.853 243.001 140.23 241.835 138.738L241.83 138.737Z" fill="black" fill-opacity="0.2"/>
<path d="M225.936 57.6614C224.292 56.0179 224.249 53.3857 225.796 51.6839L223.982 49.8697C222.279 51.4168 219.646 51.3734 218.002 49.7299C216.358 48.0863 216.315 45.4541 217.862 43.7523L216.048 41.9382C214.345 43.4853 211.712 43.4418 210.068 41.7983C208.424 40.1548 208.381 37.5226 209.928 35.8208L208.114 34.0066C206.411 35.5537 203.778 35.5103 202.134 33.8667C200.49 32.2232 200.447 29.591 201.994 27.8892L200.18 26.0751C198.477 27.6222 195.844 27.5787 194.2 25.9352C192.556 24.2916 192.513 21.6595 194.061 19.9576L192.246 18.1435C190.543 19.6906 187.91 19.6472 186.266 18.0036C184.622 16.3601 184.579 13.7279 186.127 12.0261L184.312 10.2119C182.609 11.759 179.977 11.7156 178.332 10.0721C176.688 8.42854 176.645 5.79634 178.193 4.09453L174.097 0C166.769 7.32543 154.89 7.32543 147.562 0L0 147.517C7.32766 154.843 7.32766 166.718 0 174.044L4.09471 178.137C5.79704 176.59 8.43004 176.634 10.0741 178.277C11.7181 179.921 11.7616 182.553 10.214 184.255L12.0287 186.069C13.731 184.522 16.364 184.565 18.008 186.209C19.6521 187.852 19.6955 190.485 18.148 192.186L19.9626 194C21.665 192.453 24.298 192.497 25.942 194.14C27.586 195.784 27.6295 198.416 26.0819 200.118L27.8966 201.932C29.5989 200.385 32.2319 200.428 33.876 202.072C35.52 203.715 35.5635 206.348 34.0159 208.049L35.8306 209.864C37.5329 208.316 40.1659 208.36 41.8099 210.003C43.454 211.647 43.4974 214.279 41.9499 215.981L43.7645 217.795C45.4669 216.248 48.0999 216.291 49.7439 217.935C51.3879 219.579 51.4314 222.211 49.8838 223.913L51.6985 225.727C53.4008 224.18 56.0338 224.223 57.6779 225.867C59.3219 227.51 59.3654 230.142 57.8178 231.844L61.9125 235.938C69.2402 228.612 81.1194 228.612 88.447 235.938L236.009 88.4202C228.682 81.0947 228.682 69.2191 236.009 61.8937L231.915 57.8002C230.212 59.3473 227.579 59.3039 225.935 57.6604L225.936 57.6614Z" fill="#E8330B"/>
<path d="M225.475 91.2908L91.3185 225.407L90.9825 225.071C84.2018 218.292 73.1695 218.292 66.3888 225.071L66.0528 225.407L10.5352 169.906L10.8712 169.57C17.6519 162.791 17.6519 151.762 10.8712 144.984L10.5352 144.648L144.692 10.532L145.028 10.8679C151.809 17.6465 162.841 17.6465 169.622 10.8679L169.958 10.532L225.475 66.0327L225.139 66.3687C218.358 73.1473 218.358 84.1762 225.139 90.9549L225.475 91.2908ZM91.3143 224.067L224.135 91.2866C217.426 84.2282 217.426 73.0964 224.135 66.037L169.953 11.8714C162.893 18.579 151.758 18.579 144.696 11.8714L11.875 144.652C18.5847 151.71 18.5847 162.842 11.875 169.902L66.057 224.067C73.1176 217.36 84.2527 217.36 91.3143 224.067Z" fill="white"/>
<path d="M135.703 161.249L134.553 157.877L137.93 159.015L140.782 156.88L140.743 160.442L143.657 162.494L140.256 163.558L139.204 166.961L137.14 164.057L133.577 164.109L135.703 161.249Z" fill="white"/>
<path d="M159.066 137.893L157.915 134.522L161.292 135.66L164.145 133.523L164.105 137.086L167.019 139.138L163.618 140.201L162.566 143.606L160.504 140.701L156.94 140.752L159.066 137.893Z" fill="white"/>
<path d="M145.229 149.518L142.996 142.97L149.553 145.18L155.091 141.032L155.016 147.95L160.673 151.934L154.068 154L152.026 160.609L148.02 154.969L141.101 155.07L145.229 149.518Z" fill="white"/>
<path d="M131.641 171.244L94.4189 207.719L130.904 170.508C131.395 170.029 132.127 170.741 131.64 171.244H131.641Z" fill="white"/>
<path d="M170.559 130.865L207.781 94.3904L171.295 131.601C170.803 132.08 170.072 131.368 170.559 130.865Z" fill="white"/>
<path d="M69.2944 118.106L71.4641 120.276C69.2106 121.046 67.4489 122.066 66.178 123.336C64.5478 124.966 63.7019 126.863 63.6383 129.032C63.5747 131.2 64.3093 133.049 65.842 134.581C67.4044 136.143 69.2785 136.875 71.4652 136.779C73.652 136.682 75.6044 135.775 77.3216 134.059C78.5692 132.811 79.4988 131.098 80.1072 128.917L82.2982 131.107C81.7036 133.053 80.6648 134.766 79.1819 136.249C77.0089 138.421 74.4162 139.542 71.4037 139.613C68.3913 139.684 65.8473 138.682 63.7708 136.606C61.7314 134.567 60.7435 132.064 60.8071 129.097C60.8707 126.13 61.9699 123.577 64.1068 121.442C65.4795 120.07 67.2083 118.958 69.2933 118.106H69.2944Z" fill="white"/>
<path d="M71.0562 115.377L72.9503 113.483L86.9792 127.508L85.085 129.401L71.0562 115.377Z" fill="white"/>
<path d="M75.3614 109.949L96.3968 110.238L86.2962 100.141L88.2126 98.2251L102.891 112.899L81.9026 112.658L91.8675 122.62L89.951 124.535L75.3604 109.949H75.3614Z" fill="white"/>
<path d="M90.9209 95.5176L98.6948 87.7461L100.611 89.662L94.7315 95.5399L98.2337 99.041L104.113 93.1631L106.008 95.0567L100.128 100.935L104.951 105.756L110.831 99.8781L112.725 101.772L104.951 109.543L90.922 95.5187L90.9209 95.5176Z" fill="white"/>
<path d="M111.948 73.3306L130.398 84.102L128.52 85.9797L117.269 79.3759L122.738 92.8378L109.182 87.3032L115.835 98.6607L113.967 100.528L103.192 82.0834L118.04 88.1446L111.947 73.3316L111.948 73.3306Z" fill="white"/>
<path d="M123.036 62.3322L144.228 70.2743L142.221 72.2813L137.002 70.3199L131.05 76.271L133.03 81.4686L131.037 83.4608L123.036 62.3301V62.3322ZM127.41 66.715L130.169 73.9609L134.681 69.4499L127.409 66.716L127.41 66.715Z" fill="white"/>
<path d="M69.8707 162.023L83.7374 148.16L88.1193 152.541L83.3918 157.267L99.6308 173.501L95.1862 177.944L78.9473 161.71L74.2516 166.405L69.8696 162.024L69.8707 162.023Z" fill="white"/>
<path d="M86.4702 145.429L90.9147 140.985L111.535 161.599L107.09 166.042L86.4702 145.429Z" fill="white"/>
<path d="M111.551 122.554L116.577 127.578C113.007 128.468 110.383 129.75 108.708 131.424C107.034 133.098 106.269 135.014 106.416 137.171C106.562 139.327 107.609 141.379 109.556 143.325C111.399 145.167 113.401 146.112 115.563 146.159C117.726 146.206 119.691 145.345 121.46 143.576C123.01 142.027 124.239 139.553 125.151 136.15L130.144 141.142C128.532 144.366 126.92 146.784 125.308 148.396C122.533 151.17 119.16 152.506 115.186 152.408C111.212 152.308 107.761 150.794 104.829 147.863C101.845 144.88 100.306 141.368 100.212 137.329C100.117 133.289 101.484 129.856 104.311 127.03C106.133 125.208 108.545 123.717 111.55 122.556L111.551 122.554Z" fill="white"/>
<path d="M113.891 118.016L118.335 113.573L127.043 122.278L127.106 122.216L125.223 106.686L130.678 101.233L132.69 118.906L151.627 121.517L146.285 126.858L129.365 124.477L129.303 124.54L138.953 134.187L134.509 138.63L113.889 118.016H113.891Z" fill="white"/>
<path d="M134.244 97.6696L145.849 86.0674L149.932 90.1492L142.771 97.3083L146.933 101.468L154.094 94.3094L158.114 98.3287L150.953 105.488L155.225 109.758L162.386 102.599L166.469 106.681L154.863 118.283L134.244 97.6696Z" fill="white"/>
<path d="M148.206 83.7118L162.072 69.8494L166.454 74.23L161.727 78.9561L177.966 95.1901L173.521 99.6332L157.282 83.3992L152.587 88.0935L148.205 83.7129L148.206 83.7118Z" fill="white"/>
<path d="M153.642 33.8582L152.905 34.5947L201.405 83.0785L202.142 82.342L153.642 33.8582Z" fill="white"/>
<path d="M34.6049 152.86L33.8682 153.597L82.3674 202.081L83.1042 201.345L34.6049 152.86Z" fill="white"/>
</svg>
