<svg width="338" height="188" viewBox="0 0 338 188" fill="none" xmlns="http://www.w3.org/2000/svg">
<path d="M69.6738 82.707C69.1204 82.6419 68.4368 82.5768 67.623 82.5117C66.9395 82.4466 66.0931 82.3978 65.084 82.3652C64.1074 82.3327 63.0007 82.3164 61.7637 82.3164C59.3548 82.3164 56.4902 82.4303 53.1699 82.6582C49.8496 82.8861 46.1549 83.3255 42.0859 83.9766C43.8112 76.7174 44.9993 69.6048 45.6504 62.6387C46.334 55.6725 46.6758 48.9668 46.6758 42.5215C46.6758 36.6621 46.4479 31.1608 45.9922 26.0176C45.5365 20.8418 44.9342 16.0729 44.1855 11.7109C47.4408 12.2969 50.3542 12.6875 52.9258 12.8828C55.5299 13.0781 57.776 13.1758 59.6641 13.1758C60.9661 13.1758 62.1055 13.1432 63.082 13.0781C64.0911 13.013 64.9212 12.9479 65.5723 12.8828C66.3535 12.7852 67.0208 12.6875 67.5742 12.5898C68.681 18.9701 70.0645 25.2852 71.7246 31.5352C73.3848 37.7526 75.4355 44.0026 77.877 50.2852C79.9277 43.9375 81.5553 37.5898 82.7598 31.2422C83.9642 24.862 84.778 18.3516 85.2012 11.7109L85.5918 12.5898L85.2012 11.7109C88.4564 12.2969 91.4186 12.6875 94.0879 12.8828C96.7572 13.0781 99.1172 13.1758 101.168 13.1758C102.535 13.1758 103.74 13.1432 104.781 13.0781C105.823 13.013 106.718 12.9479 107.467 12.8828C108.313 12.7852 109.046 12.6875 109.664 12.5898C108.98 15.8451 108.46 19.7025 108.102 24.1621C107.743 28.5892 107.564 33.3418 107.564 38.4199C107.564 42.0332 107.662 45.7604 107.857 49.6016C108.053 53.4102 108.346 57.2188 108.736 61.0273C109.16 64.8034 109.697 68.5306 110.348 72.209C110.999 75.8874 111.78 79.3867 112.691 82.707C112.04 82.6419 111.292 82.5768 110.445 82.5117C109.697 82.4466 108.818 82.3978 107.809 82.3652C106.799 82.3327 105.628 82.3164 104.293 82.3164C101.754 82.3164 98.7591 82.4303 95.3086 82.6582C91.8906 82.8861 88.1471 83.3255 84.0781 83.9766C84.8919 82.349 85.5592 80.2656 86.0801 77.7266C86.6335 75.1875 87.0729 72.4857 87.3984 69.6211C87.7565 66.7565 88.0169 63.9082 88.1797 61.0762C88.375 58.2116 88.5052 55.6562 88.5703 53.4102C87.6263 55.4284 86.7148 57.4792 85.8359 59.5625C84.957 61.6458 84.0456 63.8757 83.1016 66.252C82.1901 68.5957 81.2298 71.1348 80.2207 73.8691C79.2116 76.6035 78.1048 79.6471 76.9004 83C75.6634 79.6471 74.5404 76.6035 73.5312 73.8691C72.5221 71.1348 71.5618 68.5957 70.6504 66.252C69.7715 63.9082 68.8926 61.6947 68.0137 59.6113C67.1673 57.4954 66.2884 55.3958 65.377 53.3125C65.6699 58.4557 66.1582 63.5339 66.8418 68.5469C67.5254 73.5273 68.4694 78.2474 69.6738 82.707ZM158.691 54.4844C158.691 56.3724 158.545 58.4557 158.252 60.7344C157.959 62.9805 157.471 65.2591 156.787 67.5703C156.104 69.849 155.176 72.0788 154.004 74.2598C152.832 76.4082 151.367 78.3125 149.609 79.9727C147.884 81.6328 145.817 82.9674 143.408 83.9766C140.999 84.9857 138.2 85.4902 135.01 85.4902C131.82 85.4902 129.02 85.0182 126.611 84.0742C124.235 83.1302 122.184 81.877 120.459 80.3145C118.766 78.7194 117.367 76.8965 116.26 74.8457C115.153 72.7624 114.274 70.5814 113.623 68.3027C112.972 66.0241 112.516 63.7292 112.256 61.418C112.028 59.0742 111.914 56.8607 111.914 54.7773C111.914 51.099 112.402 47.502 113.379 43.9863C114.355 40.4382 115.837 37.2806 117.822 34.5137C119.84 31.7467 122.347 29.5169 125.342 27.8242C128.369 26.1315 131.917 25.2852 135.986 25.2852C138.721 25.2852 141.178 25.7083 143.359 26.5547C145.54 27.3685 147.477 28.4915 149.17 29.9238C150.863 31.3561 152.295 33.0326 153.467 34.9531C154.671 36.8737 155.664 38.9082 156.445 41.0566C157.227 43.2051 157.796 45.4349 158.154 47.7461C158.512 50.0573 158.691 52.3034 158.691 54.4844ZM141.699 56.0957C141.699 55.347 141.667 54.4193 141.602 53.3125C141.569 52.1732 141.471 50.985 141.309 49.748C141.146 48.5111 140.918 47.2741 140.625 46.0371C140.365 44.8001 140.007 43.6934 139.551 42.7168C139.095 41.7402 138.525 40.9427 137.842 40.3242C137.191 39.7057 136.41 39.3965 135.498 39.3965C134.619 39.3965 133.854 39.6895 133.203 40.2754C132.552 40.8613 131.982 41.6263 131.494 42.5703C131.038 43.5143 130.648 44.5885 130.322 45.793C130.029 46.9648 129.785 48.153 129.59 49.3574C129.427 50.5293 129.297 51.6686 129.199 52.7754C129.134 53.8496 129.102 54.7611 129.102 55.5098C129.102 56.584 129.183 57.8861 129.346 59.416C129.508 60.946 129.818 62.4108 130.273 63.8105C130.729 65.2103 131.348 66.4147 132.129 67.4238C132.943 68.4004 134.001 68.8887 135.303 68.8887C136.54 68.8887 137.565 68.4329 138.379 67.5215C139.225 66.61 139.893 65.5033 140.381 64.2012C140.869 62.8665 141.211 61.4668 141.406 60.002C141.602 58.5371 141.699 57.235 141.699 56.0957ZM209.184 83.9766C208.174 83.8138 207.068 83.6999 205.863 83.6348C204.659 83.6022 203.406 83.5859 202.104 83.5859C200.541 83.5859 198.946 83.6185 197.318 83.6836C195.723 83.7812 194.161 83.8952 192.631 84.0254C191.101 84.1556 189.652 84.3021 188.285 84.4648C186.918 84.6276 185.73 84.7741 184.721 84.9043C186.12 80.1842 187.195 75.1387 187.943 69.7676C188.725 64.3965 189.115 58.4395 189.115 51.8965C189.115 51.4082 189.099 50.7572 189.066 49.9434C189.066 49.1296 189.034 48.2507 188.969 47.3066C188.904 46.3626 188.79 45.4186 188.627 44.4746C188.497 43.498 188.285 42.6191 187.992 41.8379C187.732 41.0566 187.39 40.4219 186.967 39.9336C186.544 39.4453 186.023 39.2012 185.404 39.2012C184.493 39.2012 183.598 39.5267 182.719 40.1777C181.872 40.8288 181.107 41.6914 180.424 42.7656C179.773 43.8398 179.236 45.0768 178.812 46.4766C178.422 47.8763 178.227 49.3249 178.227 50.8223C178.227 53.5241 178.292 56.2747 178.422 59.0742C178.552 61.8411 178.764 64.5918 179.057 67.3262C179.35 70.0605 179.724 72.7461 180.18 75.3828C180.635 77.987 181.205 80.4609 181.889 82.8047C181.335 82.7721 180.684 82.7233 179.936 82.6582C179.285 82.6257 178.52 82.5931 177.641 82.5605C176.762 82.528 175.753 82.5117 174.613 82.5117C172.497 82.5117 170.056 82.6094 167.289 82.8047C164.522 82.9674 161.527 83.293 158.305 83.7812C158.695 81.9583 159.037 79.7285 159.33 77.0918C159.623 74.4551 159.867 71.5905 160.062 68.498C160.258 65.4056 160.404 62.1829 160.502 58.8301C160.632 55.4447 160.697 52.1081 160.697 48.8203C160.697 46.3789 160.665 43.9863 160.6 41.6426C160.535 39.2988 160.437 37.0853 160.307 35.002C160.209 32.9186 160.062 30.998 159.867 29.2402C159.672 27.4824 159.444 25.9688 159.184 24.6992C161.82 25.1549 164.262 25.4805 166.508 25.6758C168.754 25.8385 170.788 25.9199 172.611 25.9199C173.783 25.9199 174.825 25.9036 175.736 25.8711C176.68 25.806 177.478 25.7409 178.129 25.6758C178.91 25.5781 179.594 25.4805 180.18 25.3828C179.984 26.3919 179.789 27.4661 179.594 28.6055C179.431 29.7448 179.268 30.9818 179.105 32.3164C180.18 30.9492 181.319 29.7611 182.523 28.752C183.728 27.7103 184.932 26.8477 186.137 26.1641C187.374 25.4805 188.594 24.9759 189.799 24.6504C191.003 24.2923 192.143 24.1133 193.217 24.1133C195.561 24.1133 197.579 24.6016 199.271 25.5781C200.997 26.5221 202.413 28.0195 203.52 30.0703C204.659 32.1211 205.505 34.7415 206.059 37.9316C206.612 41.1217 206.889 44.9466 206.889 49.4062C206.889 52.4661 206.889 55.5749 206.889 58.7324C206.921 61.89 207.003 64.9824 207.133 68.0098C207.263 71.0371 207.491 73.918 207.816 76.6523C208.142 79.3542 208.598 81.7956 209.184 83.9766ZM251.277 37.5898C251.277 40.0312 250.919 42.4076 250.203 44.7188C249.52 47.0299 248.299 49.0807 246.541 50.8711C244.783 52.6615 242.407 54.0938 239.412 55.168C236.45 56.2422 232.674 56.7793 228.084 56.7793C228.214 58.3743 228.54 59.709 229.061 60.7832C229.614 61.8574 230.265 62.7201 231.014 63.3711C231.762 64.0221 232.56 64.5104 233.406 64.8359C234.253 65.1615 235.034 65.3893 235.75 65.5195C236.466 65.6497 237.068 65.7148 237.557 65.7148C238.045 65.7148 238.289 65.7148 238.289 65.7148C240.307 65.487 242.114 64.9661 243.709 64.1523C244.393 63.8268 245.06 63.4199 245.711 62.9316C246.362 62.4108 246.948 61.8086 247.469 61.125C248.022 60.4089 248.462 59.6113 248.787 58.7324C249.145 57.821 249.357 56.7793 249.422 55.6074C250.268 57.7233 250.854 59.709 251.18 61.5645C251.538 63.3874 251.717 65.0964 251.717 66.6914C251.717 69.6211 251.18 72.3229 250.105 74.7969C249.064 77.2383 247.615 79.3542 245.76 81.1445C243.904 82.9349 241.691 84.3184 239.119 85.2949C236.58 86.304 233.813 86.8086 230.818 86.8086C227.889 86.8086 225.057 86.304 222.322 85.2949C219.62 84.2858 217.212 82.6908 215.096 80.5098C213.012 78.2962 211.336 75.4316 210.066 71.916C208.829 68.4004 208.211 64.1361 208.211 59.123C208.211 53.6868 208.992 48.8691 210.555 44.6699C212.117 40.4707 214.217 36.9551 216.854 34.123C219.49 31.2585 222.534 29.0938 225.984 27.6289C229.467 26.1315 233.113 25.3828 236.922 25.3828C238.81 25.3828 240.617 25.5944 242.342 26.0176C244.1 26.4408 245.63 27.1406 246.932 28.1172C248.266 29.0938 249.324 30.3633 250.105 31.9258C250.887 33.4557 251.277 35.3438 251.277 37.5898ZM227.889 48.7227C228.8 48.6901 229.858 48.5111 231.062 48.1855C232.267 47.8275 233.406 47.3392 234.48 46.7207C235.555 46.1022 236.45 45.3372 237.166 44.4258C237.915 43.5143 238.289 42.4727 238.289 41.3008C238.289 40.5521 238.029 39.9499 237.508 39.4941C236.987 39.0384 236.32 38.8105 235.506 38.8105C234.367 38.8105 233.341 39.1361 232.43 39.7871C231.551 40.4382 230.786 41.252 230.135 42.2285C229.516 43.2051 229.012 44.2793 228.621 45.4512C228.23 46.623 227.986 47.7135 227.889 48.7227ZM299.963 26.8965C299.605 28.2637 299.296 29.9076 299.035 31.8281C298.807 33.7487 298.596 35.8158 298.4 38.0293C298.205 40.2428 298.042 42.554 297.912 44.9629C297.814 47.3717 297.717 49.7155 297.619 51.9941C297.424 57.3652 297.31 63.0293 297.277 68.9863C297.277 72.3066 297.066 75.5781 296.643 78.8008C296.252 82.0234 295.601 85.0671 294.689 87.9316C293.811 90.8288 292.655 93.498 291.223 95.9395C289.823 98.4134 288.098 100.529 286.047 102.287C284.029 104.077 281.669 105.477 278.967 106.486C276.298 107.495 273.27 108 269.885 108C266.727 108 263.993 107.674 261.682 107.023C259.37 106.372 257.45 105.445 255.92 104.24C254.423 103.068 253.299 101.652 252.551 99.9922C251.835 98.332 251.477 96.5091 251.477 94.5234C251.477 92.5378 251.818 90.7311 252.502 89.1035C253.186 87.5085 254.081 86.1576 255.188 85.0508C256.294 83.944 257.548 83.0977 258.947 82.5117C260.347 81.8932 261.763 81.584 263.195 81.584C265.018 81.584 266.743 82.1048 268.371 83.1465C269.999 84.1882 271.236 85.832 272.082 88.0781C271.887 87.9154 271.659 87.8014 271.398 87.7363C271.171 87.7038 270.926 87.6875 270.666 87.6875C270.308 87.6875 269.934 87.7689 269.543 87.9316C269.185 88.0944 268.859 88.3223 268.566 88.6152C268.273 88.9082 268.029 89.2337 267.834 89.5918C267.671 89.9824 267.59 90.3893 267.59 90.8125C267.59 91.3008 267.688 91.7077 267.883 92.0332C268.078 92.3913 268.306 92.668 268.566 92.8633C268.859 93.0586 269.169 93.1888 269.494 93.2539C269.852 93.3516 270.178 93.4004 270.471 93.4004C270.926 93.4004 271.496 93.3027 272.18 93.1074C272.863 92.9121 273.563 92.5052 274.279 91.8867C275.028 91.2682 275.76 90.4056 276.477 89.2988C277.225 88.1921 277.876 86.7109 278.43 84.8555C279.016 83.0326 279.471 80.8027 279.797 78.166C280.155 75.5293 280.318 72.3717 280.285 68.6934C279.439 70.972 278.544 72.8275 277.6 74.2598C276.688 75.6595 275.712 76.75 274.67 77.5312C273.661 78.3125 272.587 78.8333 271.447 79.0938C270.34 79.3542 269.152 79.4844 267.883 79.4844C266.288 79.4844 264.611 79.2077 262.854 78.6543C261.128 78.0684 259.533 77.0592 258.068 75.627C256.636 74.1621 255.448 72.1764 254.504 69.6699C253.56 67.1634 253.088 63.9733 253.088 60.0996C253.088 59.5788 253.088 59.2207 253.088 59.0254C253.12 58.7975 253.137 58.6348 253.137 58.5371C253.137 58.4069 253.153 58.2604 253.186 58.0977C253.218 57.9349 253.234 57.6257 253.234 57.1699C253.234 56.6816 253.234 55.998 253.234 55.1191C253.267 54.2402 253.283 53.0033 253.283 51.4082C253.283 49.5527 253.251 47.4531 253.186 45.1094C253.12 42.7656 252.974 40.4707 252.746 38.2246C252.551 35.9785 252.258 33.944 251.867 32.1211C251.477 30.2656 250.972 28.8984 250.354 28.0195C252.99 28.4753 255.464 28.7845 257.775 28.9473C260.119 29.11 262.251 29.1914 264.172 29.1914C265.441 29.1914 266.581 29.1751 267.59 29.1426C268.632 29.0775 269.527 29.0124 270.275 28.9473C271.122 28.8822 271.887 28.8008 272.57 28.7031C272.31 29.2565 272.017 30.3145 271.691 31.877C271.398 33.4395 271.105 35.3112 270.812 37.4922C270.52 39.6732 270.275 42.0658 270.08 44.6699C269.885 47.2415 269.787 49.8457 269.787 52.4824C269.787 54.4681 269.934 56.1608 270.227 57.5605C270.52 58.9603 270.91 60.1159 271.398 61.0273C271.919 61.9062 272.505 62.5573 273.156 62.9805C273.84 63.4036 274.572 63.6152 275.354 63.6152C276.59 63.6152 277.567 63.1107 278.283 62.1016C279.032 61.0924 279.667 59.8229 280.188 58.293C280.122 56.2747 280.008 53.9147 279.846 51.2129C279.683 48.5111 279.455 45.6953 279.162 42.7656C278.902 39.8359 278.544 36.89 278.088 33.9277C277.665 30.9329 277.128 28.1497 276.477 25.5781C277.486 25.9362 278.69 26.2617 280.09 26.5547C281.294 26.8151 282.759 27.043 284.484 27.2383C286.21 27.401 288.244 27.4824 290.588 27.4824C293.355 27.4824 296.48 27.2871 299.963 26.8965Z" fill="white"/>
<path d="M29.4922 162.707C28.9388 162.642 28.2552 162.577 27.4414 162.512C26.7578 162.447 25.9115 162.398 24.9023 162.365C23.9258 162.333 22.819 162.316 21.582 162.316C19.1732 162.316 16.3086 162.43 12.9883 162.658C9.66797 162.886 5.97331 163.326 1.9043 163.977C3.62956 156.717 4.81771 149.605 5.46875 142.639C6.15234 135.673 6.49414 128.967 6.49414 122.521C6.49414 116.662 6.26628 111.161 5.81055 106.018C5.35482 100.842 4.7526 96.0729 4.00391 91.7109C7.25911 92.2969 10.1725 92.6875 12.7441 92.8828C15.3483 93.0781 17.5944 93.1758 19.4824 93.1758C20.7845 93.1758 21.9238 93.1432 22.9004 93.0781C23.9095 93.013 24.7396 92.9479 25.3906 92.8828C26.1719 92.7852 26.8392 92.6875 27.3926 92.5898C28.4993 98.9701 29.8828 105.285 31.543 111.535C33.2031 117.753 35.2539 124.003 37.6953 130.285C39.7461 123.938 41.3737 117.59 42.5781 111.242C43.7826 104.862 44.5964 98.3516 45.0195 91.7109L45.4102 92.5898L45.0195 91.7109C48.2747 92.2969 51.237 92.6875 53.9062 92.8828C56.5755 93.0781 58.9355 93.1758 60.9863 93.1758C62.3535 93.1758 63.5579 93.1432 64.5996 93.0781C65.6413 93.013 66.5365 92.9479 67.2852 92.8828C68.1315 92.7852 68.8639 92.6875 69.4824 92.5898C68.7988 95.8451 68.278 99.7025 67.9199 104.162C67.5618 108.589 67.3828 113.342 67.3828 118.42C67.3828 122.033 67.4805 125.76 67.6758 129.602C67.8711 133.41 68.1641 137.219 68.5547 141.027C68.9779 144.803 69.515 148.531 70.166 152.209C70.8171 155.887 71.5983 159.387 72.5098 162.707C71.8587 162.642 71.11 162.577 70.2637 162.512C69.515 162.447 68.6361 162.398 67.627 162.365C66.6178 162.333 65.446 162.316 64.1113 162.316C61.5723 162.316 58.5775 162.43 55.127 162.658C51.709 162.886 47.9655 163.326 43.8965 163.977C44.7103 162.349 45.3776 160.266 45.8984 157.727C46.4518 155.188 46.8913 152.486 47.2168 149.621C47.5749 146.757 47.8353 143.908 47.998 141.076C48.1934 138.212 48.3236 135.656 48.3887 133.41C47.4447 135.428 46.5332 137.479 45.6543 139.562C44.7754 141.646 43.8639 143.876 42.9199 146.252C42.0085 148.596 41.0482 151.135 40.0391 153.869C39.0299 156.604 37.9232 159.647 36.7188 163C35.4818 159.647 34.3587 156.604 33.3496 153.869C32.3405 151.135 31.3802 148.596 30.4688 146.252C29.5898 143.908 28.7109 141.695 27.832 139.611C26.9857 137.495 26.1068 135.396 25.1953 133.312C25.4883 138.456 25.9766 143.534 26.6602 148.547C27.3438 153.527 28.2878 158.247 29.4922 162.707ZM120.512 106.896C120.154 108.264 119.844 109.908 119.584 111.828C119.356 113.749 119.145 115.816 118.949 118.029C118.754 120.243 118.591 122.554 118.461 124.963C118.363 127.372 118.266 129.715 118.168 131.994C117.973 137.365 117.859 143.029 117.826 148.986C117.826 152.307 117.615 155.578 117.191 158.801C116.801 162.023 116.15 165.067 115.238 167.932C114.359 170.829 113.204 173.498 111.771 175.939C110.372 178.413 108.646 180.529 106.596 182.287C104.577 184.077 102.217 185.477 99.5156 186.486C96.8464 187.495 93.819 188 90.4336 188C87.276 188 84.5417 187.674 82.2305 187.023C79.9193 186.372 77.9987 185.445 76.4688 184.24C74.9714 183.068 73.8483 181.652 73.0996 179.992C72.3835 178.332 72.0254 176.509 72.0254 174.523C72.0254 172.538 72.3672 170.731 73.0508 169.104C73.7344 167.508 74.6296 166.158 75.7363 165.051C76.8431 163.944 78.0964 163.098 79.4961 162.512C80.8958 161.893 82.3118 161.584 83.7441 161.584C85.5671 161.584 87.2923 162.105 88.9199 163.146C90.5475 164.188 91.7845 165.832 92.6309 168.078C92.4355 167.915 92.2077 167.801 91.9473 167.736C91.7194 167.704 91.4753 167.688 91.2148 167.688C90.8568 167.688 90.4824 167.769 90.0918 167.932C89.7337 168.094 89.4082 168.322 89.1152 168.615C88.8223 168.908 88.5781 169.234 88.3828 169.592C88.2201 169.982 88.1387 170.389 88.1387 170.812C88.1387 171.301 88.2363 171.708 88.4316 172.033C88.627 172.391 88.8548 172.668 89.1152 172.863C89.4082 173.059 89.7174 173.189 90.043 173.254C90.401 173.352 90.7266 173.4 91.0195 173.4C91.4753 173.4 92.0449 173.303 92.7285 173.107C93.4121 172.912 94.112 172.505 94.8281 171.887C95.5768 171.268 96.3092 170.406 97.0254 169.299C97.7741 168.192 98.4251 166.711 98.9785 164.855C99.5645 163.033 100.02 160.803 100.346 158.166C100.704 155.529 100.867 152.372 100.834 148.693C99.9876 150.972 99.0924 152.827 98.1484 154.26C97.237 155.66 96.2604 156.75 95.2188 157.531C94.2096 158.312 93.1354 158.833 91.9961 159.094C90.8893 159.354 89.7012 159.484 88.4316 159.484C86.8366 159.484 85.1602 159.208 83.4023 158.654C81.6771 158.068 80.082 157.059 78.6172 155.627C77.1849 154.162 75.9967 152.176 75.0527 149.67C74.1087 147.163 73.6367 143.973 73.6367 140.1C73.6367 139.579 73.6367 139.221 73.6367 139.025C73.6693 138.798 73.6855 138.635 73.6855 138.537C73.6855 138.407 73.7018 138.26 73.7344 138.098C73.7669 137.935 73.7832 137.626 73.7832 137.17C73.7832 136.682 73.7832 135.998 73.7832 135.119C73.8158 134.24 73.832 133.003 73.832 131.408C73.832 129.553 73.7995 127.453 73.7344 125.109C73.6693 122.766 73.5228 120.471 73.2949 118.225C73.0996 115.979 72.8066 113.944 72.416 112.121C72.0254 110.266 71.5208 108.898 70.9023 108.02C73.5391 108.475 76.013 108.785 78.3242 108.947C80.668 109.11 82.8001 109.191 84.7207 109.191C85.9902 109.191 87.1296 109.175 88.1387 109.143C89.1803 109.077 90.0755 109.012 90.8242 108.947C91.6706 108.882 92.4355 108.801 93.1191 108.703C92.8587 109.257 92.5658 110.314 92.2402 111.877C91.9473 113.439 91.6543 115.311 91.3613 117.492C91.0684 119.673 90.8242 122.066 90.6289 124.67C90.4336 127.242 90.3359 129.846 90.3359 132.482C90.3359 134.468 90.4824 136.161 90.7754 137.561C91.0684 138.96 91.459 140.116 91.9473 141.027C92.4681 141.906 93.054 142.557 93.7051 142.98C94.3887 143.404 95.1211 143.615 95.9023 143.615C97.1393 143.615 98.1159 143.111 98.832 142.102C99.5807 141.092 100.215 139.823 100.736 138.293C100.671 136.275 100.557 133.915 100.395 131.213C100.232 128.511 100.004 125.695 99.7109 122.766C99.4505 119.836 99.0924 116.89 98.6367 113.928C98.2135 110.933 97.6764 108.15 97.0254 105.578C98.0345 105.936 99.2389 106.262 100.639 106.555C101.843 106.815 103.308 107.043 105.033 107.238C106.758 107.401 108.793 107.482 111.137 107.482C113.904 107.482 117.029 107.287 120.512 106.896ZM160.848 118.615C160.848 119.917 160.587 121.089 160.066 122.131C159.546 123.173 158.846 124.068 157.967 124.816C157.088 125.533 156.062 126.102 154.891 126.525C153.719 126.916 152.482 127.111 151.18 127.111C149.682 127.111 148.396 126.932 147.322 126.574C146.281 126.216 145.385 125.76 144.637 125.207C143.921 124.621 143.351 123.986 142.928 123.303C142.505 122.587 142.163 121.903 141.902 121.252C141.674 120.601 141.528 119.999 141.463 119.445C141.398 118.892 141.365 118.469 141.365 118.176C141.658 118.729 142.033 119.071 142.488 119.201C142.944 119.331 143.302 119.396 143.562 119.396C144.311 119.396 144.848 119.201 145.174 118.811C145.499 118.42 145.662 118.013 145.662 117.59C145.662 117.329 145.597 117.036 145.467 116.711C145.337 116.385 145.109 116.092 144.783 115.832C144.458 115.539 144.035 115.295 143.514 115.1C142.993 114.904 142.342 114.807 141.561 114.807C141.072 114.807 140.551 114.904 139.998 115.1C139.445 115.295 138.94 115.604 138.484 116.027C138.061 116.418 137.703 116.923 137.41 117.541C137.117 118.127 136.971 118.811 136.971 119.592C136.971 121.057 137.345 122.294 138.094 123.303C138.842 124.312 139.819 125.207 141.023 125.988C142.26 126.737 143.644 127.437 145.174 128.088C146.736 128.739 148.331 129.423 149.959 130.139C151.587 130.822 153.165 131.604 154.695 132.482C156.258 133.329 157.641 134.37 158.846 135.607C160.083 136.844 161.076 138.326 161.824 140.051C162.573 141.776 162.947 143.827 162.947 146.203C162.947 149.23 162.329 151.965 161.092 154.406C159.855 156.848 158.195 158.947 156.111 160.705C154.061 162.43 151.668 163.749 148.934 164.66C146.199 165.604 143.318 166.076 140.291 166.076C137.524 166.076 134.904 165.702 132.43 164.953C129.956 164.204 127.791 163.163 125.936 161.828C124.08 160.493 122.599 158.915 121.492 157.092C120.418 155.269 119.881 153.299 119.881 151.184C119.881 149.589 120.141 148.205 120.662 147.033C121.183 145.829 121.899 144.836 122.811 144.055C123.755 143.273 124.845 142.688 126.082 142.297C127.352 141.906 128.719 141.711 130.184 141.711C131.258 141.711 132.332 141.825 133.406 142.053C134.48 142.281 135.49 142.622 136.434 143.078C137.378 143.534 138.224 144.087 138.973 144.738C139.721 145.389 140.324 146.138 140.779 146.984C140.519 146.919 140.258 146.87 139.998 146.838C139.77 146.805 139.526 146.789 139.266 146.789C138.549 146.789 137.98 146.984 137.557 147.375C137.166 147.733 136.971 148.335 136.971 149.182C136.971 150.093 137.345 150.858 138.094 151.477C138.842 152.095 139.673 152.404 140.584 152.404C141.105 152.404 141.593 152.29 142.049 152.062C142.505 151.835 142.895 151.542 143.221 151.184C143.546 150.793 143.79 150.37 143.953 149.914C144.148 149.458 144.246 148.986 144.246 148.498C144.246 147.652 143.953 146.74 143.367 145.764C142.814 144.787 142.016 143.973 140.975 143.322C138.924 142.053 136.987 140.962 135.164 140.051C133.341 139.139 131.665 138.277 130.135 137.463C128.605 136.649 127.221 135.835 125.984 135.021C124.78 134.208 123.755 133.264 122.908 132.189C122.062 131.083 121.411 129.797 120.955 128.332C120.499 126.835 120.271 125.028 120.271 122.912C120.271 120.406 120.76 118.094 121.736 115.979C122.745 113.83 124.178 111.975 126.033 110.412C127.889 108.85 130.167 107.629 132.869 106.75C135.571 105.839 138.631 105.383 142.049 105.383C145.532 105.383 148.462 105.79 150.838 106.604C153.247 107.417 155.184 108.459 156.648 109.729C158.146 110.998 159.22 112.414 159.871 113.977C160.522 115.539 160.848 117.085 160.848 118.615ZM201.086 103.723C200.826 105.188 200.63 106.62 200.5 108.02C200.402 109.419 200.354 110.852 200.354 112.316C200.354 113.716 200.402 115.132 200.5 116.564C200.63 117.964 200.826 119.38 201.086 120.812C199.523 119.999 197.749 119.396 195.764 119.006C193.811 118.615 191.809 118.306 189.758 118.078V122.277C189.758 125.956 189.823 129.683 189.953 133.459C190.083 137.202 190.295 140.848 190.588 144.396C190.881 147.912 191.255 151.249 191.711 154.406C192.199 157.564 192.785 160.363 193.469 162.805C192.915 162.772 192.264 162.723 191.516 162.658C190.865 162.626 190.1 162.593 189.221 162.561C188.342 162.528 187.333 162.512 186.193 162.512C184.077 162.512 181.636 162.609 178.869 162.805C176.102 162.967 173.107 163.293 169.885 163.781C170.992 157.434 171.773 150.842 172.229 144.006C172.717 137.137 172.961 130.432 172.961 123.889V118.078C170.747 118.241 168.55 118.501 166.369 118.859C164.221 119.185 162.186 119.592 160.266 120.08C160.396 119.722 160.51 119.25 160.607 118.664C160.705 118.078 160.77 117.476 160.803 116.857C160.868 116.239 160.9 115.637 160.9 115.051C160.933 114.465 160.949 113.977 160.949 113.586C160.949 111.926 160.884 110.282 160.754 108.654C160.624 107.027 160.461 105.383 160.266 103.723C161.828 104.374 163.684 104.911 165.832 105.334C167.98 105.725 170.161 106.018 172.375 106.213C172.18 103.381 171.952 100.76 171.691 98.3516C171.431 95.9427 171.122 93.7617 170.764 91.8086C173.4 92.2643 175.842 92.5736 178.088 92.7363C180.334 92.8991 182.368 92.9805 184.191 92.9805C185.363 92.9805 186.405 92.9642 187.316 92.9316C188.26 92.8665 189.058 92.8014 189.709 92.7363C190.49 92.6712 191.174 92.5898 191.76 92.4922C191.402 94.0547 191.092 96.0078 190.832 98.3516C190.604 100.663 190.376 103.251 190.148 106.115C192.297 105.887 194.315 105.578 196.203 105.188C198.124 104.797 199.751 104.309 201.086 103.723ZM241.275 117.59C241.275 120.031 240.917 122.408 240.201 124.719C239.518 127.03 238.297 129.081 236.539 130.871C234.781 132.661 232.405 134.094 229.41 135.168C226.448 136.242 222.672 136.779 218.082 136.779C218.212 138.374 218.538 139.709 219.059 140.783C219.612 141.857 220.263 142.72 221.012 143.371C221.76 144.022 222.558 144.51 223.404 144.836C224.251 145.161 225.032 145.389 225.748 145.52C226.464 145.65 227.066 145.715 227.555 145.715C228.043 145.715 228.287 145.715 228.287 145.715C230.305 145.487 232.112 144.966 233.707 144.152C234.391 143.827 235.058 143.42 235.709 142.932C236.36 142.411 236.946 141.809 237.467 141.125C238.02 140.409 238.46 139.611 238.785 138.732C239.143 137.821 239.355 136.779 239.42 135.607C240.266 137.723 240.852 139.709 241.178 141.564C241.536 143.387 241.715 145.096 241.715 146.691C241.715 149.621 241.178 152.323 240.104 154.797C239.062 157.238 237.613 159.354 235.758 161.145C233.902 162.935 231.689 164.318 229.117 165.295C226.578 166.304 223.811 166.809 220.816 166.809C217.887 166.809 215.055 166.304 212.32 165.295C209.618 164.286 207.21 162.691 205.094 160.51C203.01 158.296 201.334 155.432 200.064 151.916C198.827 148.4 198.209 144.136 198.209 139.123C198.209 133.687 198.99 128.869 200.553 124.67C202.115 120.471 204.215 116.955 206.852 114.123C209.488 111.258 212.532 109.094 215.982 107.629C219.465 106.132 223.111 105.383 226.92 105.383C228.808 105.383 230.615 105.594 232.34 106.018C234.098 106.441 235.628 107.141 236.93 108.117C238.264 109.094 239.322 110.363 240.104 111.926C240.885 113.456 241.275 115.344 241.275 117.59ZM217.887 128.723C218.798 128.69 219.856 128.511 221.061 128.186C222.265 127.827 223.404 127.339 224.479 126.721C225.553 126.102 226.448 125.337 227.164 124.426C227.913 123.514 228.287 122.473 228.287 121.301C228.287 120.552 228.027 119.95 227.506 119.494C226.985 119.038 226.318 118.811 225.504 118.811C224.365 118.811 223.339 119.136 222.428 119.787C221.549 120.438 220.784 121.252 220.133 122.229C219.514 123.205 219.01 124.279 218.619 125.451C218.229 126.623 217.984 127.714 217.887 128.723ZM267.988 118.713C266.979 118.713 266.068 119.006 265.254 119.592C264.44 120.145 263.708 120.943 263.057 121.984C262.438 122.993 261.885 124.214 261.396 125.646C260.941 127.079 260.566 128.658 260.273 130.383C260.273 133.15 260.339 135.949 260.469 138.781C260.599 141.613 260.811 144.413 261.104 147.18C261.396 149.947 261.771 152.648 262.227 155.285C262.715 157.922 263.301 160.428 263.984 162.805C263.464 162.772 262.861 162.723 262.178 162.658C261.592 162.626 260.876 162.593 260.029 162.561C259.215 162.528 258.271 162.512 257.197 162.512C255.179 162.512 252.835 162.609 250.166 162.805C247.529 162.967 244.6 163.293 241.377 163.781C241.768 161.958 242.109 159.729 242.402 157.092C242.695 154.455 242.939 151.59 243.135 148.498C243.33 145.406 243.477 142.183 243.574 138.83C243.704 135.445 243.77 132.108 243.77 128.82C243.77 126.379 243.737 123.986 243.672 121.643C243.607 119.299 243.509 117.085 243.379 115.002C243.281 112.919 243.135 110.998 242.939 109.24C242.744 107.482 242.516 105.969 242.256 104.699C244.893 105.155 247.285 105.48 249.434 105.676C251.615 105.839 253.568 105.92 255.293 105.92C256.4 105.92 257.376 105.904 258.223 105.871C259.069 105.806 259.801 105.741 260.42 105.676C261.104 105.578 261.722 105.48 262.275 105.383C261.885 107.01 261.592 108.817 261.396 110.803C263.089 108.752 264.928 107.238 266.914 106.262C268.932 105.285 270.82 104.797 272.578 104.797C275.508 104.797 277.982 105.334 280 106.408C282.018 107.45 283.646 108.833 284.883 110.559C286.12 112.251 287.015 114.188 287.568 116.369C288.122 118.55 288.398 120.764 288.398 123.01C288.398 125.191 288.089 127.323 287.471 129.406C286.852 131.49 285.957 133.361 284.785 135.021C283.613 136.649 282.165 137.967 280.439 138.977C278.714 139.986 276.761 140.49 274.58 140.49C272.66 140.49 271.016 140.165 269.648 139.514C268.314 138.863 267.207 138.016 266.328 136.975C265.449 135.933 264.798 134.794 264.375 133.557C263.984 132.287 263.789 131.034 263.789 129.797C263.789 128.495 263.968 127.225 264.326 125.988C264.717 124.751 265.27 123.628 265.986 122.619C266.214 123.335 266.491 123.889 266.816 124.279C267.174 124.637 267.533 124.898 267.891 125.061C268.281 125.256 268.704 125.37 269.16 125.402C270.365 125.402 271.26 125.126 271.846 124.572C272.464 124.019 272.773 123.368 272.773 122.619C272.773 122.261 272.708 121.854 272.578 121.398C272.448 120.943 272.204 120.52 271.846 120.129C271.52 119.738 271.048 119.413 270.43 119.152C269.811 118.859 268.997 118.713 267.988 118.713ZM335.277 106.896C334.919 108.264 334.61 109.908 334.35 111.828C334.122 113.749 333.91 115.816 333.715 118.029C333.52 120.243 333.357 122.554 333.227 124.963C333.129 127.372 333.031 129.715 332.934 131.994C332.738 137.365 332.624 143.029 332.592 148.986C332.592 152.307 332.38 155.578 331.957 158.801C331.566 162.023 330.915 165.067 330.004 167.932C329.125 170.829 327.969 173.498 326.537 175.939C325.137 178.413 323.412 180.529 321.361 182.287C319.343 184.077 316.983 185.477 314.281 186.486C311.612 187.495 308.585 188 305.199 188C302.042 188 299.307 187.674 296.996 187.023C294.685 186.372 292.764 185.445 291.234 184.24C289.737 183.068 288.614 181.652 287.865 179.992C287.149 178.332 286.791 176.509 286.791 174.523C286.791 172.538 287.133 170.731 287.816 169.104C288.5 167.508 289.395 166.158 290.502 165.051C291.609 163.944 292.862 163.098 294.262 162.512C295.661 161.893 297.077 161.584 298.51 161.584C300.333 161.584 302.058 162.105 303.686 163.146C305.313 164.188 306.55 165.832 307.396 168.078C307.201 167.915 306.973 167.801 306.713 167.736C306.485 167.704 306.241 167.688 305.98 167.688C305.622 167.688 305.248 167.769 304.857 167.932C304.499 168.094 304.174 168.322 303.881 168.615C303.588 168.908 303.344 169.234 303.148 169.592C302.986 169.982 302.904 170.389 302.904 170.812C302.904 171.301 303.002 171.708 303.197 172.033C303.393 172.391 303.62 172.668 303.881 172.863C304.174 173.059 304.483 173.189 304.809 173.254C305.167 173.352 305.492 173.4 305.785 173.4C306.241 173.4 306.811 173.303 307.494 173.107C308.178 172.912 308.878 172.505 309.594 171.887C310.342 171.268 311.075 170.406 311.791 169.299C312.54 168.192 313.191 166.711 313.744 164.855C314.33 163.033 314.786 160.803 315.111 158.166C315.469 155.529 315.632 152.372 315.6 148.693C314.753 150.972 313.858 152.827 312.914 154.26C312.003 155.66 311.026 156.75 309.984 157.531C308.975 158.312 307.901 158.833 306.762 159.094C305.655 159.354 304.467 159.484 303.197 159.484C301.602 159.484 299.926 159.208 298.168 158.654C296.443 158.068 294.848 157.059 293.383 155.627C291.951 154.162 290.762 152.176 289.818 149.67C288.874 147.163 288.402 143.973 288.402 140.1C288.402 139.579 288.402 139.221 288.402 139.025C288.435 138.798 288.451 138.635 288.451 138.537C288.451 138.407 288.467 138.26 288.5 138.098C288.533 137.935 288.549 137.626 288.549 137.17C288.549 136.682 288.549 135.998 288.549 135.119C288.581 134.24 288.598 133.003 288.598 131.408C288.598 129.553 288.565 127.453 288.5 125.109C288.435 122.766 288.288 120.471 288.061 118.225C287.865 115.979 287.572 113.944 287.182 112.121C286.791 110.266 286.286 108.898 285.668 108.02C288.305 108.475 290.779 108.785 293.09 108.947C295.434 109.11 297.566 109.191 299.486 109.191C300.756 109.191 301.895 109.175 302.904 109.143C303.946 109.077 304.841 109.012 305.59 108.947C306.436 108.882 307.201 108.801 307.885 108.703C307.624 109.257 307.331 110.314 307.006 111.877C306.713 113.439 306.42 115.311 306.127 117.492C305.834 119.673 305.59 122.066 305.395 124.67C305.199 127.242 305.102 129.846 305.102 132.482C305.102 134.468 305.248 136.161 305.541 137.561C305.834 138.96 306.225 140.116 306.713 141.027C307.234 141.906 307.82 142.557 308.471 142.98C309.154 143.404 309.887 143.615 310.668 143.615C311.905 143.615 312.882 143.111 313.598 142.102C314.346 141.092 314.981 139.823 315.502 138.293C315.437 136.275 315.323 133.915 315.16 131.213C314.997 128.511 314.77 125.695 314.477 122.766C314.216 119.836 313.858 116.89 313.402 113.928C312.979 110.933 312.442 108.15 311.791 105.578C312.8 105.936 314.005 106.262 315.404 106.555C316.609 106.815 318.074 107.043 319.799 107.238C321.524 107.401 323.559 107.482 325.902 107.482C328.669 107.482 331.794 107.287 335.277 106.896Z" fill="#4ACB7D"/>
</svg>
